<?xml  version="1.0" encoding="UTF-8"?>
<!DOCTYPE svg PUBLIC "-//W3C//DTD SVG 1.0//EN" "http://www.w3.org/TR/2001/REC-SVG-20010904/DTD/svg10.dtd" >
<svg xmlns="http://www.w3.org/2000/svg" >
<metadata>
<version>1.0</version>
<id><![CDATA[ITC Berkeley Oldstyle W01 Bd It]]></id>
<vendor>Monotype Imaging Inc.</vendor>
<credits>
<name>Fonts.com WebFonts</name>
<URL>http://webfonts.fonts.com</URL>
<role>Home of the Web fonts</role>
</credits>
<license>
<URL>http://webfonts.fonts.com/Legal</URL>
</license>
<copyright><![CDATA[Part of this font software is copyrighted ¨ 2004 - 2006 Linotype GmbH, www.linotype.com. All rights reserved. This font software may not be reproduced, modified, disclosed or transferred without the express written approval of Linotype GmbH. Copyright Esselte Letraset Ltd., 1990.]]></copyright>
<trademark><![CDATA[ITC Berkeley Oldstyle is a trademark of International Typeface Corporation Registered in  U.S. Patent & Trademark Office and may be registered in certain other jurisdictions.]]></trademark>
<licensee>
<name></name>
</licensee>
</metadata>
<defs >
<font horiz-adv-x="504" id="3f1df25f-34d9-4cfa-8953-c8e044f1f624">
<font-face font-family="" panose-1="2 9 6 3 6 3 6 9 4 4" ascent="705" descent="-295" units-per-em="1000" alphabetic="0">
</font-face>
<missing-glyph horiz-adv-x="259" />

<glyph unicode="&#xA;" />
<glyph unicode="&#xD;" />
<glyph unicode=" " horiz-adv-x="259" />
<glyph unicode="!" horiz-adv-x="315" d="M128 -12Q102 -12 87 3T72 44Q72 70 87 85T128 100Q154 100 169 85T184 44Q184 18 169 3T128 -12ZM123 150Q126 220 129 292T136 428T140 546T141 635H185Q207 635 219 635T237 631T244 622T246 603Q246 565 237 508T213 386T184 260T156 150H123Z"  />
<glyph unicode="&quot;" horiz-adv-x="444" d="M165 372Q163 366 157 354T137 341Q130 341 126 344T120 353T118 364T117 372L124 576Q124 585 125 599T132 626T148 648T176 657Q199 657 206 644T213 614Q213 604 212 594T208 576L165 372ZM338 372Q336 366 330 354T310 341Q303 341 299 344T293 353T291 364T290 372L297 576Q297 585 298 599T305 626T321 648T349 657Q372 657 379 644T386 614Q386 604 385 594T381 576L338 372Z"  />
<glyph unicode="#" horiz-adv-x="519" d="M359 392H197L163 243H324L359 392ZM82 460H168L202 608H246L212 460H374L408 608H452L418 460H520L489 392H403L368 243H470L439 175H353L319 27H275L309 175H148L114 27H70L104 175H2L33 243H119L153 392H51L82 460Z"  />
<glyph unicode="$" horiz-adv-x="519" d="M301 601Q278 600 257 593T219 573T194 541T184 497Q184 476 190 461T209 435T237 413T272 393L301 601ZM252 37Q276 41 297 50T335 75T362 111T372 159Q372 181 365 197T346 226T318 249T285 269L252 37ZM300 378Q332 361 360 344T410 306T443 259T455 198Q455 154 438 120T391 61T325 22T247 3L237 -71H206L216 2Q199 3 172 7T118 22T74 47T55 86Q55 100 66 107T89 115Q118 115 138 94T161 45Q174 38 189 36T221 34L256 285Q223 303 195 320T148 358T117 404T106 465Q106 504 123 535T169 587T232 620T305 632L316 705H347L336 631Q352 629 375 624T420 609T457 584T473 549Q473 536 465 528T442 520Q429 520 417 526T396 541T382 563T375 589Q364 594 354 596T332 600L300 378Z"  />
<glyph unicode="%" horiz-adv-x="722" d="M467 -5Q426 -5 400 27T373 107Q373 150 390 190T436 262T505 312T588 331Q629 331 655 299T682 219Q682 176 665 136T619 64T550 14T467 -5ZM505 30Q519 30 536 39T569 68T595 121T606 198Q606 212 604 229T596 261T579 286T551 296Q537 296 520 287T486 258T460 205T449 128Q449 115 451 98T460 66T477 41T505 30ZM177 310Q136 310 110 342T83 422Q83 465 100 505T146 577T215 627T298 646Q339 646 365 614T392 534Q392 491 375 451T329 379T260 329T177 310ZM215 345Q229 345 246 354T279 383T305 436T316 513Q316 527 314 544T306 576T289 601T261 611Q247 611 230 602T196 573T170 520T159 443Q159 430 161 413T170 381T187 356T215 345ZM669 688Q530 527 417 348T226 -28L222 -38L164 -52Q187 12 218 72T283 192Q357 324 440 449T623 688H669Z"  />
<glyph unicode="&amp;" horiz-adv-x="833" d="M268 418Q280 401 299 392T339 382Q348 382 360 386T373 402Q373 411 368 416T355 423T339 427T324 428Q310 428 296 426T268 418ZM343 193Q345 220 355 243T381 283T421 309T471 319Q498 319 525 309T582 286Q611 274 639 264T697 254Q722 254 738 263T762 283T772 306T772 323Q752 325 738 342T724 380Q724 394 730 405T753 416Q766 416 775 407T791 386T800 359T803 334Q803 306 792 279T763 229T719 194T664 180Q648 180 632 184T602 193Q599 137 570 97T498 32T403 -6T303 -19Q223 -19 171 2T87 54T44 123T31 193Q31 234 45 270T84 336T139 389T206 428Q179 461 179 506Q179 545 198 573T246 620T311 648T380 657Q410 657 444 650T504 628Q502 612 499 597T495 565Q495 557 493 544T480 531Q472 531 470 535T466 547Q464 559 454 566T429 578T401 585T377 587Q355 587 331 581T287 563T254 531T241 486Q241 473 243 464T249 444Q259 447 268 449T287 454Q305 457 325 457Q338 457 353 455T382 446T404 429T413 402Q413 388 406 379T387 363T362 355T337 352Q308 352 279 366T229 401Q181 372 159 332T136 233Q136 185 153 147T200 83T270 42T355 28Q386 28 421 37T487 64T538 111T558 176Q558 192 553 202Q541 209 527 216T497 230T466 241T437 246Q413 246 396 231T370 193H343Z"  />
<glyph unicode="&apos;" horiz-adv-x="204" d="M130 372Q128 366 122 354T102 341Q95 341 91 344T85 353T83 364T82 372L89 576Q89 585 90 599T97 626T113 648T141 657Q164 657 171 644T178 614Q178 604 177 594T173 576L130 372Z"  />
<glyph unicode="(" horiz-adv-x="352" d="M370 684Q303 645 259 593T187 483T149 369T138 263Q138 213 144 163T167 65T210 -24T279 -99L252 -130Q201 -103 165 -60T105 36T70 146T59 258Q59 302 76 366T129 497T221 621T356 712L370 684Z"  />
<glyph unicode=")" horiz-adv-x="352" d="M-32 -102Q35 -63 79 -11T151 99T189 213T200 319Q200 369 194 419T171 517T128 606T59 681L86 712Q137 685 173 642T233 546T268 436T279 324Q279 280 262 216T209 85T117 -39T-18 -130L-32 -102Z"  />
<glyph unicode="*" horiz-adv-x="500" d="M153 596Q158 589 173 574T207 543T241 516T263 504Q269 504 270 514T271 532Q271 559 264 593T249 651Q261 654 275 654Q297 654 315 650T348 639Q340 627 332 611T315 578T301 544T294 514Q294 511 294 506T299 500Q309 500 327 507T366 525T403 546T427 563Q446 528 446 487Q446 482 446 477T445 466Q439 467 426 469T397 474T364 477T333 479Q319 479 310 477T300 470Q300 463 313 448T342 415T375 384T398 367Q381 347 359 335T311 318V322Q311 332 308 354T299 400T287 440T275 458Q269 458 258 441T235 402T216 359T206 331Q183 342 164 359T134 399Q141 401 161 411T201 433T238 458T254 476Q254 483 236 489T193 498T146 504T112 507Q115 531 125 554T153 596Z"  />
<glyph unicode="+" horiz-adv-x="519" d="M283 255V47H236V255H55V302H236V505H283V302H463V255H283Z"  />
<glyph unicode="&#x2c;" horiz-adv-x="259" d="M24 -136Q39 -129 56 -118T89 -92T114 -61T124 -26Q124 -14 117 -6Q111 -8 105 -10T92 -12Q72 -12 59 0T46 32Q46 58 64 73T107 88Q143 88 161 63T180 5Q180 -24 169 -49T139 -95T97 -132T48 -159L24 -136Z"  />
<glyph unicode="-" horiz-adv-x="333" d="M82 187Q52 187 43 184T29 180Q23 180 23 185Q23 188 38 209T72 260H237Q252 260 261 261T275 263T284 266T289 267Q295 267 295 262Q295 259 280 238T247 187H82Z"  />
<glyph unicode="." horiz-adv-x="259" d="M98 -12Q72 -12 57 3T42 44Q42 70 57 85T98 100Q124 100 139 85T154 44Q154 18 139 3T98 -12Z"  />
<glyph unicode="/" horiz-adv-x="278" d="M47 -19H-31L235 654H313L47 -19Z"  />
<glyph unicode="0" horiz-adv-x="519" d="M329 654Q375 654 405 634T454 582T479 510T487 427Q487 388 479 340T455 243T414 147T356 64T282 6T191 -16Q145 -16 115 4T66 57T41 129T33 211Q33 250 41 298T65 395T106 491T164 574T238 632T329 654ZM226 30Q261 30 290 60T340 140T373 256T385 390Q385 411 383 447T371 520T343 582T294 608Q259 608 230 579T180 500T147 386T135 254Q135 232 137 194T149 120T177 57T226 30Z"  />
<glyph unicode="1" horiz-adv-x="519" d="M73 0L78 33H155Q167 33 173 34T181 46Q193 130 204 210T225 359T240 483T246 572Q246 583 244 593T229 603Q212 603 189 597T148 586L138 615Q192 632 248 642T361 657Q362 652 362 647T363 634Q363 623 358 579T344 474T327 344T310 214T297 110T291 57Q291 40 298 37T325 33H391L386 0H73Z"  />
<glyph unicode="2" horiz-adv-x="519" d="M9 0Q2 0 -4 1T-10 8Q-10 14 1 24T15 38L232 254Q250 272 268 298T302 355T327 419T337 482Q337 538 312 575T233 613Q216 613 198 608T167 591Q168 586 168 581T169 571Q169 553 164 538T150 511T130 492T107 485Q91 485 83 495T75 520Q75 546 92 570T137 613T203 643T280 654Q359 654 403 614T447 505Q447 458 428 414T369 320T267 214T118 87L120 85Q153 88 190 89T264 91T335 92T397 95Q415 96 424 101T437 113T445 124T457 129Q468 129 468 116Q468 110 465 99T457 71T446 37T434 0H9Z"  />
<glyph unicode="3" horiz-adv-x="519" d="M185 379Q216 379 243 388T290 416T321 459T333 515Q333 553 308 579T240 606Q202 606 167 591T100 554L84 580Q130 615 185 634T297 654Q325 654 351 648T399 627T432 591T445 537Q445 503 430 476T392 429T339 394T282 373V371Q317 368 349 359T406 332T446 284T461 214Q461 171 440 130T380 56T287 4T166 -16Q149 -16 121 -13T65 0T17 25T-3 66Q-3 82 10 91T37 100Q53 100 66 93T90 75T108 50T118 22Q135 17 149 17Q188 17 223 33T286 76T329 138T345 213Q345 284 300 316T180 349L185 379Z"  />
<glyph unicode="4" horiz-adv-x="519" d="M347 3Q318 -5 300 -10T271 -19T255 -24T248 -26Q238 -26 238 -15Q238 -12 240 -3T248 33T263 108T285 236H18Q18 251 24 265T39 293T58 319T78 343Q112 377 142 410T204 476T272 544T356 621Q371 634 389 645T434 657L387 303H419Q437 303 448 307T465 316T476 326T485 330Q495 330 495 321Q495 315 492 305T485 282T477 258T469 236H378L347 3ZM328 551L326 553Q290 516 257 484T194 420T140 360T96 300Q128 302 172 302T293 303L328 551Z"  />
<glyph unicode="5" horiz-adv-x="519" d="M136 434Q160 436 186 438T228 441Q262 441 302 432T377 401T435 340T458 242Q458 192 434 146T367 63T269 6T150 -16Q122 -16 96 -11T49 4T16 27T3 56Q3 72 15 80T41 89Q70 89 93 69T123 21Q132 17 144 17Q177 17 213 32T278 75T327 139T346 221Q346 283 322 318T267 370T205 392T162 396H103Q98 396 94 397T89 406Q89 412 95 432T109 478T128 534T148 588T163 630T170 649Q196 643 222 638T275 630Q329 624 383 624Q391 624 404 624T430 627T455 633T473 645Q477 650 479 653T489 657Q501 657 501 646Q501 631 494 612T470 553Q454 542 435 538T397 534Q373 534 346 538T291 548T236 562T186 578L136 434Z"  />
<glyph unicode="6" horiz-adv-x="519" d="M499 621Q422 621 364 600T263 541T195 448T157 325Q195 356 239 378T334 401Q370 401 396 389T438 356T463 305T471 242Q471 192 453 146T401 63T324 6T227 -16Q176 -16 141 1T83 48T52 118T42 205Q42 291 67 372T147 515T287 616T492 654H503L499 621ZM240 17Q274 17 298 37T338 88T361 152T368 216Q368 241 363 263T346 303T315 330T268 341Q233 341 205 325T152 286Q151 263 150 248T148 220Q148 198 150 164T162 97T189 41T240 17Z"  />
<glyph unicode="7" horiz-adv-x="519" d="M94 652Q143 633 194 627T298 621Q315 621 339 622T390 625T442 632T485 641Q496 644 502 647T511 651Q516 651 516 645Q516 642 508 632T490 608Q443 539 401 462T324 305T265 148T230 1Q169 -10 146 -18T119 -26Q114 -26 112 -22T110 -14Q110 7 122 44T152 123T187 201T215 258Q260 345 316 425T439 575L437 577Q383 559 323 545T206 531Q196 531 183 531T156 534T130 539T108 547Q97 553 96 565T94 604V652Z"  />
<glyph unicode="8" horiz-adv-x="519" d="M219 305Q171 285 144 248T117 157Q117 131 123 106T143 61T178 29T229 17Q286 17 322 53T359 147Q359 178 348 200T318 241T274 274T219 305ZM309 367Q351 388 376 424T401 507Q401 557 375 589T296 621Q272 621 251 613T214 589T189 553T180 508Q180 480 190 460T219 423T260 394T309 367ZM340 349Q366 335 389 319T429 283T455 237T465 180Q465 148 450 114T404 51T328 3T221 -16Q183 -16 146 -7T80 21T34 70T16 145Q16 181 31 210T70 262T124 300T187 325Q166 337 148 351T115 384T93 423T85 470Q85 513 106 547T160 605T233 641T313 654Q345 654 376 646T433 621T473 577T489 514Q489 479 477 453T444 408T396 374T340 349Z"  />
<glyph unicode="9" horiz-adv-x="519" d="M29 17Q105 17 164 38T265 97T333 190T371 313Q333 282 289 260T194 237Q158 237 132 249T90 282T65 333T57 396Q57 446 75 492T127 575T204 632T301 654Q352 654 387 637T445 590T476 520T486 433Q486 347 461 266T381 123T241 22T36 -16H25L29 17ZM288 621Q253 621 229 601T190 550T167 485T160 422Q160 397 165 375T182 335T213 307T260 297Q295 297 323 313T376 352Q377 375 378 390T380 418Q380 440 378 474T366 541T339 597T288 621Z"  />
<glyph unicode=":" horiz-adv-x="259" d="M146 333Q120 333 105 348T90 389Q90 415 105 430T146 445Q172 445 187 430T202 389Q202 363 187 348T146 333ZM98 -12Q72 -12 57 3T42 44Q42 70 57 85T98 100Q124 100 139 85T154 44Q154 18 139 3T98 -12Z"  />
<glyph unicode=";" horiz-adv-x="259" d="M24 -136Q39 -129 56 -118T89 -92T114 -61T124 -26Q124 -14 117 -6Q111 -8 105 -10T92 -12Q72 -12 59 0T46 32Q46 58 64 73T107 88Q143 88 161 63T180 5Q180 -24 169 -49T139 -95T97 -132T48 -159L24 -136ZM146 333Q120 333 105 348T90 389Q90 415 105 430T146 445Q172 445 187 430T202 389Q202 363 187 348T146 333Z"  />
<glyph unicode="&lt;" horiz-adv-x="519" d="M56 256V296L463 499V445L117 276L463 106V52L56 256Z"  />
<glyph unicode="=" horiz-adv-x="519" d="M55 346V393H463V346H55ZM55 162V209H463V162H55Z"  />
<glyph unicode="&gt;" horiz-adv-x="519" d="M463 295V255L56 52V106L402 275L56 445V499L463 295Z"  />
<glyph unicode="?" horiz-adv-x="426" d="M192 598Q156 598 138 591T112 575T101 559T89 551Q77 551 77 562Q77 566 80 575T87 596T95 616T101 631Q158 654 218 654Q252 654 286 645T346 618T388 571T405 503Q405 468 393 442T360 393T309 351T246 309Q226 296 212 287T197 268Q197 262 201 253T210 236T222 223T233 216Q237 215 240 214T244 207Q244 202 234 195T211 180T183 165T161 153Q144 171 131 194T112 244Q175 295 212 330T268 391T293 439T299 486Q299 513 289 534T263 569T229 591T192 598ZM149 -12Q123 -12 108 3T93 44Q93 70 108 85T149 100Q175 100 190 85T205 44Q205 18 190 3T149 -12Z"  />
<glyph unicode="@" horiz-adv-x="785" d="M178 276Q178 331 202 381T269 470T375 530T512 553Q520 553 526 561Q528 564 534 569T551 575Q564 575 568 571T573 561Q573 551 567 526Q561 502 554 468T541 395T530 317T525 243Q525 209 526 195T533 181Q553 181 581 197T634 245T677 322T695 424Q695 469 677 513T627 591T551 647T453 669Q380 669 315 642T202 568T125 458T96 322Q96 282 112 231T164 135T256 60T392 29Q452 29 503 46T595 88T662 136T703 175L728 145Q693 110 655 81T574 30T483 -4T377 -16Q285 -16 218 14T107 90T42 192T20 300Q20 391 61 466T167 596T308 681T457 712Q525 712 582 691T682 631T747 541T771 425Q771 369 744 317T675 224T587 160T498 136Q462 136 451 149T440 191Q440 202 440 218T442 249L440 250Q412 214 373 188T288 162Q260 162 239 171T205 197T185 233T178 276ZM459 520Q412 520 377 497T317 437T281 359T269 278Q269 236 278 222T306 208Q339 208 368 235T420 305T458 405T476 520H459Z"  />
<glyph unicode="A" horiz-adv-x="648" d="M362 33H386Q415 33 420 34T426 42Q426 47 424 58T418 92T406 148T388 234H177Q162 204 147 175T121 121T102 76T94 44Q94 36 100 35T131 33H169L164 0H-30L-25 33H13Q27 33 33 44L349 647Q359 649 372 651T397 656T418 659T431 661Q445 661 445 649Q445 641 441 638T432 633T422 626T418 613Q418 602 427 556T452 443T484 296T518 136Q526 97 531 77T542 46T554 35T571 33H604L599 0H357L362 33ZM199 273H381L330 525H328L199 273Z"  />
<glyph unicode="B" horiz-adv-x="593" d="M199 71Q199 47 206 43T236 39Q288 39 321 53T374 89T401 134T409 176Q409 231 389 262T340 307T281 325T229 328Q226 308 221 271T211 195T203 121T199 71ZM78 635H386Q426 635 454 625T501 596T528 555T537 504Q537 472 523 446T486 400T435 365T379 341V339Q408 330 434 316T480 283T511 237T523 177Q523 136 504 103T451 47T370 12T266 0H14L19 33H45Q70 33 77 34T84 47Q84 50 89 86T101 176T117 293T133 413T146 513T151 570Q151 593 146 597T123 602H73L78 635ZM234 363Q251 363 281 361T338 353Q379 373 402 409T425 492Q425 532 410 553T374 585T330 596T290 598Q281 598 274 597T265 585L234 363Z"  />
<glyph unicode="C" horiz-adv-x="667" d="M633 566Q632 554 630 546T618 538Q609 538 606 543T600 562Q600 571 591 580T564 598T522 612T465 618Q394 618 338 588T242 507T181 391T159 258Q159 209 171 165T209 88T274 36T367 17Q409 17 442 28T501 56T541 89T559 118Q562 129 564 135T577 141Q590 141 590 127Q590 119 586 99T575 34Q519 6 454 -8T326 -22Q262 -22 210 -6T120 44T62 128T41 245Q41 335 74 411T166 541T303 626T470 657Q512 657 555 651T639 630L633 566Z"  />
<glyph unicode="D" horiz-adv-x="722" d="M187 71Q187 57 190 48T211 39H266Q335 39 384 57T468 105T524 170T556 241T572 306T576 354Q576 397 566 440T530 517T464 574T360 596H271Q260 596 258 592T254 583Q242 492 230 407T209 252T193 135T187 71ZM65 635H445Q495 635 540 619T619 569T674 486T694 369Q694 351 689 317T668 241T623 157T547 80T430 23T266 0H1L6 33H32Q57 33 64 34T71 47Q71 50 76 86T88 176T104 293T120 413T133 513T138 570Q138 593 133 597T110 602H60L65 635Z"  />
<glyph unicode="E" horiz-adv-x="574" d="M452 257H421Q427 309 427 316Q427 321 424 324T409 330T375 334T316 335H229Q214 214 206 146T197 68Q197 48 204 44T231 39H258Q290 39 327 40T399 46T459 62T496 94Q498 99 501 103T511 108Q522 108 522 95Q522 84 516 64T499 0H10L15 33H41Q66 33 73 34T80 47Q80 50 85 86T97 176T113 293T129 413T142 513T147 570Q147 593 142 597T119 602H69L74 635H548L541 580Q540 575 540 568T539 553T534 541T525 535Q516 535 514 540T511 552T505 566T488 580Q462 591 419 593T323 596H295Q281 596 273 595T263 583L234 371H322Q337 371 357 372T395 376T426 385T441 404L447 441H478L452 257Z"  />
<glyph unicode="F" horiz-adv-x="556" d="M234 371H322Q337 371 357 372T395 376T426 385T441 404L447 441H478L452 257H421Q427 309 427 316Q427 321 424 324T409 330T375 334T316 335H229Q214 214 205 143T196 64Q196 44 202 39T222 33H298L293 0H10L15 33H41Q66 33 73 34T80 47Q80 50 85 86T97 176T113 293T129 413T142 513T147 570Q147 593 142 597T119 602H69L74 635H548L541 580Q540 575 540 568T539 553T534 541T525 535Q516 535 514 540T511 552T505 566T488 580Q462 591 419 593T323 596H295Q281 596 273 595T263 583L234 371Z"  />
<glyph unicode="G" horiz-adv-x="722" d="M695 286L690 253H652Q641 253 634 252T625 240L606 95Q606 89 608 86T612 81T617 77T619 71Q619 60 609 54T588 43Q562 29 530 18T463 -3T394 -17T331 -22Q265 -22 212 -5T120 47T62 132T41 249Q41 326 70 399T156 530T297 622T493 657Q535 657 578 651T662 630L656 566Q655 554 653 546T641 538Q632 538 629 543T623 562Q623 571 614 580T587 598T545 612T488 618Q414 618 354 590T250 513T183 402T159 269Q159 220 171 176T208 97T273 42T367 21Q396 21 430 29T491 51Q496 98 503 136T510 221Q510 244 504 248T478 253H431L436 286H695Z"  />
<glyph unicode="H" horiz-adv-x="704" d="M496 371Q506 450 512 503T519 570Q519 593 514 597T491 602H441L446 635H706L701 602H658Q642 602 639 598T634 575L573 102Q571 91 570 78T568 58Q568 49 573 41T589 33H647L642 0H382L387 33H413Q438 33 445 34T452 47Q452 51 455 74T464 136T477 224T492 332H218Q216 313 211 275T201 196T193 118T189 64Q189 45 195 39T215 33H266L261 0H3L8 33H34Q59 33 66 34T73 47Q73 50 78 86T90 176T106 293T122 413T135 513T140 570Q140 593 135 597T112 602H62L67 635H327L322 602H279Q265 602 262 598T255 575L224 371H496Z"  />
<glyph unicode="I" horiz-adv-x="333" d="M270 0H10L15 33H41Q66 33 73 34T80 47Q80 50 85 86T97 176T113 293T129 413T142 513T147 570Q147 593 142 597T119 602H69L74 635H334L329 602H286Q270 602 267 598T262 575L198 80Q197 74 197 69T196 58Q196 49 201 41T217 33H275L270 0Z"  />
<glyph unicode="J" horiz-adv-x="333" d="M152 562Q153 568 153 572T154 582Q154 596 147 599T125 602H75L80 635H340L335 602H292Q276 602 273 598T268 575L193 6Q185 -56 161 -97T105 -162T37 -196T-31 -206Q-46 -206 -66 -203T-105 -193T-137 -173T-151 -140Q-151 -123 -139 -115T-111 -106Q-97 -106 -85 -111T-62 -126T-44 -148T-34 -173Q-20 -173 -4 -170T29 -151T58 -102T80 -7L152 562Z"  />
<glyph unicode="K" horiz-adv-x="648" d="M643 0H493Q487 0 481 1T467 9T447 30T419 71L270 305L213 266Q212 257 209 231T201 173T194 111T191 64Q191 44 197 39T217 33H275L270 0H10L15 33H41Q66 33 73 34T80 47Q80 50 85 86T97 176T113 293T129 413T142 513T147 570Q147 593 142 597T119 602H69L74 635H324L319 602H280Q272 602 268 601T262 595T258 580T254 552L220 315L438 501Q445 507 457 519T483 545T505 572T515 594Q515 600 508 601T476 602H436L441 635H656L651 602H608Q605 602 601 600T586 588Q562 565 533 539T474 484T412 427T351 371Q368 348 389 316T434 250T480 181T525 119T562 70T586 44Q597 37 602 35T617 33H648L643 0Z"  />
<glyph unicode="L" horiz-adv-x="556" d="M10 0L15 33H41Q66 33 73 34T80 47Q80 50 85 86T97 176T113 293T129 413T142 513T147 570Q147 593 142 597T119 602H69L74 635H334L329 602H286Q270 602 267 598T262 575Q251 492 240 412T219 263T203 145T197 71Q197 48 203 44T229 39H256Q284 39 320 40T389 46T450 62T487 94Q490 101 492 104T502 108Q513 108 513 95Q513 84 507 64T490 0H10Z"  />
<glyph unicode="M" horiz-adv-x="833" d="M402 163Q472 281 536 398T669 635H817L812 602H794Q771 602 765 601T758 590L697 64Q695 42 704 38T731 33H776L771 0H517L522 33H540Q544 33 552 33T567 34T581 37T587 44L639 498L637 500L371 30Q367 23 362 15T347 6Q342 6 338 11T332 23T327 37T324 47L185 487H183Q171 420 162 364T145 259T133 166T125 77Q124 61 124 53T128 40T139 34T157 33H206L201 0H4L9 33H43Q57 33 62 36T70 56Q103 264 125 381T147 534Q147 559 142 573T128 593T111 601T93 602H57L62 635H246L402 163Z"  />
<glyph unicode="N" horiz-adv-x="704" d="M549 167Q561 248 570 318T585 442T594 532T597 577Q597 595 590 598T564 602H517L522 635H722L717 602H673Q659 602 654 599T646 579L564 16Q564 8 563 -1T551 -11Q547 -11 540 -4T527 12T514 31T506 43L183 502Q169 428 158 351T138 209T124 102T119 56Q119 39 126 36T151 33H215L210 0H4L9 33H43Q57 33 62 36T70 56Q77 100 85 150T102 249T119 346T133 431T142 496T146 532Q146 542 141 554T126 577T106 595T84 602H45L50 635H222L549 167Z"  />
<glyph unicode="O" horiz-adv-x="722" d="M305 -22Q179 -22 110 48T41 243Q41 324 69 399T147 531T267 622T422 657Q548 657 617 587T686 392Q686 311 658 236T580 104T460 13T305 -22ZM159 245Q159 210 166 170T191 95T240 37T322 14Q372 14 417 38T495 110T548 228T568 390Q568 425 561 465T536 540T487 598T405 621Q355 621 310 597T232 525T179 407T159 245Z"  />
<glyph unicode="P" horiz-adv-x="537" d="M64 635H362Q404 635 436 623T490 590T523 542T535 487Q535 432 510 392T444 326T354 287T257 274Q249 274 235 275T207 279Q204 249 200 216T192 153T186 97T183 58Q183 41 189 37T214 33H264L259 0H0L5 33H31Q56 33 63 34T70 47Q70 50 75 86T87 176T103 293T119 413T132 513T137 570Q137 593 132 597T109 602H59L64 635ZM211 312Q231 307 248 307Q284 307 315 319T371 353T409 405T423 471Q423 497 416 520T394 560T353 588T291 598Q265 598 258 597T249 584L211 312Z"  />
<glyph unicode="Q" horiz-adv-x="685" d="M48 0Q48 19 55 35T75 64T104 84T140 92Q155 92 169 88T199 77T233 58T276 32Q343 42 392 73T472 152T519 258T535 380Q535 420 527 462T498 540T446 598T365 621Q316 621 278 597T214 534T173 450T159 360Q159 336 164 309T181 260T213 222T263 207Q295 207 319 221T366 257L386 236Q351 197 305 174T205 151Q167 151 138 164T89 199T59 253T49 321Q49 389 77 450T152 557T261 630T391 657Q430 657 475 645T558 601T622 519T648 390Q648 314 623 249T554 134T447 51T312 6Q344 -17 377 -39T441 -78T500 -105T553 -115Q574 -115 594 -107T631 -87L648 -109Q631 -123 613 -138T576 -165T536 -186T493 -194Q472 -194 452 -188T412 -173T375 -152T343 -130Q314 -110 279 -84T211 -33T150 7T107 24Q82 24 74 0H48Z"  />
<glyph unicode="R" horiz-adv-x="593" d="M452 0Q442 0 436 0T426 3T417 9T405 23Q385 48 367 79T331 144T297 213T265 280H204Q201 253 197 221T190 157T183 100T180 58Q180 41 186 37T211 33H261L256 0H-4L1 33H27Q52 33 59 34T66 47Q66 50 71 86T83 176T99 293T115 413T128 513T133 570Q133 593 128 597T105 602H55L60 635H340Q408 635 445 615T500 568T521 515T524 476Q524 446 511 419T475 370T422 332T360 307Q382 261 401 226T438 163T472 113T505 69Q519 51 533 42T583 33L578 0H452ZM209 313H240Q277 313 309 323T365 355T401 406T415 475Q415 542 377 570T278 598Q259 598 254 596T247 583L209 313Z"  />
<glyph unicode="S" horiz-adv-x="519" d="M99 472Q99 518 119 552T172 610T249 645T340 657Q377 657 412 651T478 632V573Q478 562 476 554T463 546Q456 546 454 549T449 559Q444 576 430 587T399 605T363 615T328 618Q305 618 283 612T241 593T211 561T199 516Q199 485 218 461T266 416T328 373T390 325T438 266T457 187Q457 147 441 110T391 43T306 -4T185 -22Q146 -22 107 -17T30 0Q29 13 28 28T25 56T22 80T21 95Q21 109 34 109Q43 109 46 104T52 90Q58 71 74 57T111 34T153 21T193 17Q223 17 251 26T301 52T337 94T351 152Q351 184 333 210T286 259T225 305T164 351T118 405T99 472Z"  />
<glyph unicode="T" horiz-adv-x="611" d="M118 0L123 33H160Q175 33 184 33T198 34T204 39T207 47L284 596Q243 596 208 594T147 587T104 574T83 553Q81 546 78 541T66 536Q61 536 57 539T53 547Q53 556 60 574T78 635H601V564Q601 554 600 547T587 540Q576 540 572 557Q568 571 551 579T509 590T454 595T392 596Q371 455 358 361T337 206T326 114T323 64Q323 44 329 39T349 33H413L408 0H118Z"  />
<glyph unicode="U" horiz-adv-x="704" d="M731 635L726 602H686Q680 602 669 601T657 593L618 346Q613 316 606 277T584 197T548 117T493 47T412 -3T302 -22Q262 -22 224 -13T157 18T109 72T91 152Q91 164 93 186T98 237T106 298T115 364Q119 398 123 430T131 491T137 539T139 570Q139 593 134 597T111 602H56L61 635H326L321 602H278Q263 602 260 598T254 575Q251 551 246 515T236 439T224 356T213 276T205 208T202 163Q202 98 234 60T333 22Q403 22 447 56T519 142T559 255T578 371L599 549Q600 555 600 563T601 578Q601 595 594 598T568 602H521L526 635H731Z"  />
<glyph unicode="V" horiz-adv-x="648" d="M674 602H642Q631 602 629 601T621 591Q588 525 565 480T523 399T487 330T447 256T394 158T320 20Q311 3 303 -9T287 -22Q279 -22 275 -9T266 21L114 531Q107 555 102 569T92 590T83 600T72 602H32L37 635H278L273 602H229Q219 602 215 601T211 593Q211 591 212 585T216 572T220 559T223 551L344 148Q357 169 378 206T423 289T472 383T516 473T548 546T561 589Q561 599 554 600T530 602H481L486 635H679L674 602Z"  />
<glyph unicode="W" horiz-adv-x="944" d="M973 602H940Q929 602 926 600T918 589Q848 437 777 299T639 20Q631 3 624 -9T609 -22Q601 -22 598 -11T588 21L482 376H480Q440 288 398 201T314 20Q306 3 299 -9T284 -22Q276 -22 272 -10T263 21L121 495Q109 534 102 555T89 587T77 600T62 602H29L34 635H270L265 602H224Q214 602 210 601T206 593Q206 591 207 585T211 572T215 559T218 551L333 158Q354 197 371 231T403 298T434 361T465 427L443 504Q433 540 427 559T415 588T403 600T388 602H358L363 635H605L600 602H550Q540 602 536 601T532 593Q532 584 566 471T662 154Q683 193 705 237T750 325T792 412T827 489T851 551T860 589Q860 599 853 600T829 602H783L788 635H978L973 602Z"  />
<glyph unicode="X" horiz-adv-x="630" d="M637 602H599Q592 602 589 599T578 588L373 364L475 154Q497 109 510 84T533 48T548 35T561 33H590L585 0H336L341 33H400Q410 33 410 40Q410 45 404 60T383 105T346 181T290 294Q245 250 210 208T150 131T112 73T98 45Q98 36 106 35T146 33H180L175 0H-28L-23 33H9Q24 33 31 44T46 66L272 329L216 445Q187 504 171 536T145 582T128 599T112 602H77L82 635H328L323 602H276Q268 602 265 602T261 596Q261 588 287 537T356 398Q414 462 446 499T494 555T513 581T516 593Q516 600 509 601T486 602H447L452 635H642L637 602Z"  />
<glyph unicode="Y" horiz-adv-x="574" d="M279 602H234Q226 602 221 601T216 595Q216 592 220 582T231 558T245 531T257 505L330 339Q343 354 360 376T396 424T432 477T464 527T487 568T496 593Q496 600 491 601T479 602H422L427 635H614L609 603H576Q566 603 563 601T554 591Q504 519 448 443T337 290L315 74Q314 68 314 64T314 55Q314 41 321 37T340 33H397L392 0H112L117 33H155Q168 33 176 33T188 34T193 39T195 47L230 301L128 529Q107 575 96 588T77 602H31L36 635H284L279 602Z"  />
<glyph unicode="Z" horiz-adv-x="593" d="M31 0Q23 0 19 -1T12 -4Q9 -6 7 -7T-1 -9Q-11 -9 -11 1Q-11 6 2 24T35 66T79 118T126 171T165 215T189 241Q200 253 219 274T261 320T310 375T361 433T407 491T445 545L443 547Q420 537 401 533T361 529Q347 529 318 532T259 539T205 546T175 549Q101 549 101 484H72Q69 496 69 508Q69 537 80 562T111 605T155 633T210 643Q234 643 265 638T332 626T404 614T478 608Q506 608 515 614T529 629T537 643T560 650H573Q562 621 544 596T506 547L390 407Q356 366 312 317T227 221T155 138T116 86Q132 90 143 92T169 95T207 96T272 96Q332 96 369 96T430 97T468 100T496 107Q506 110 511 116T519 128T525 138T536 143Q549 143 549 129Q549 120 543 101T530 61T515 23T505 0H31Z"  />
<glyph unicode="[" horiz-adv-x="352" d="M338 705L333 672H272Q253 672 250 670T245 659L157 -58Q157 -81 163 -85T189 -90H236L231 -123H67L157 550Q163 595 166 638T170 705H338Z"  />
<glyph unicode="\" horiz-adv-x="240" d="M187 -11L-3 730H48L239 -11H187Z"  />
<glyph unicode="]" horiz-adv-x="352" d="M266 705L177 43Q169 -20 166 -60T163 -123H-5L0 -90H61Q80 -90 83 -88T88 -77L176 640Q176 663 170 667T144 672H97L102 705H266Z"  />
<glyph unicode="^" horiz-adv-x="519" d="M409 282L260 590L110 282H56L242 654H277L463 282H409Z"  />
<glyph unicode="_" horiz-adv-x="500" d="M0 -125V-75H500V-125H0Z"  />
<glyph unicode="`" horiz-adv-x="278" d="M213 497Q181 524 147 546T74 584Q77 588 81 594T89 606T99 616T107 620Q114 620 133 607T173 577T211 544T235 519L213 497Z"  />
<glyph unicode="a" horiz-adv-x="500" d="M28 122Q28 181 50 237T112 338T205 410T320 438Q350 438 373 435T420 426Q420 452 424 457T441 462H462Q446 395 436 336T420 227T412 140T409 81Q409 64 411 54T423 43Q428 43 437 46T455 55T474 66T488 74L500 53Q439 13 390 -3T325 -19Q313 -19 311 -4T308 38Q308 59 312 91T319 152L317 154Q305 128 286 98T242 42T188 -1T126 -19Q99 -19 80 -6T50 29T33 74T28 122ZM133 141Q133 130 135 115T142 85T156 61T181 51Q203 51 229 71T280 133T323 243T350 403Q335 408 322 408Q274 408 239 382T180 315T145 228T133 141Z"  />
<glyph unicode="b" horiz-adv-x="500" d="M177 -9Q154 -9 132 -5T87 6Q87 -20 83 -25T66 -30H48Q58 26 68 94T88 233T106 372T121 495T130 586T134 632Q134 639 133 647T122 655Q111 655 95 649T59 637L51 662Q73 672 100 680T152 693T198 702T228 705Q238 705 240 701T243 685Q243 662 238 614T224 507T207 390T192 284L194 282Q206 308 225 336T268 389T321 429T383 445Q408 445 426 434T456 404T473 360T479 308Q479 248 456 191T393 89T297 18T177 -9ZM158 27Q171 24 184 24Q234 24 270 50T329 117T363 206T374 296Q374 308 373 323T367 351T353 374T328 383Q308 383 290 369T255 335T228 294T209 257Q184 203 174 145T158 27Z"  />
<glyph unicode="c" horiz-adv-x="407" d="M375 67Q337 25 284 3T173 -19Q98 -19 64 24T29 139Q29 208 55 264T121 361T209 423T304 445Q314 445 329 443T358 436T382 421T392 398Q392 381 379 373T350 365Q326 365 307 379T278 415Q240 406 214 378T171 312T146 233T138 158Q138 137 141 114T154 71T180 39T224 26Q260 26 297 45T359 89L375 67Z"  />
<glyph unicode="d" horiz-adv-x="500" d="M134 141Q134 130 136 115T143 85T157 61T182 51Q204 51 230 71T281 133T324 243T351 403Q336 408 323 408Q275 408 240 382T181 315T146 228T134 141ZM501 53Q440 13 391 -3T326 -19Q314 -19 312 -4T309 38Q309 59 313 91T320 152L318 154Q306 128 287 98T243 42T189 -1T127 -19Q100 -19 81 -6T51 29T34 74T29 122Q29 181 51 237T113 338T206 410T321 438Q329 438 338 438T356 436Q362 482 365 514T370 570T372 609T373 637Q373 643 371 649T361 655Q350 655 334 649T298 637L290 662Q312 672 339 680T391 693T437 702T467 705Q476 705 479 702T482 690Q482 625 471 550T447 395T422 236T411 79Q411 62 412 53T424 43Q429 43 438 46T456 55T475 66T489 74L501 53Z"  />
<glyph unicode="e" horiz-adv-x="444" d="M394 79Q355 34 301 8T186 -19Q147 -19 120 -7T75 28T50 81T42 147Q42 204 62 257T118 352T204 419T314 445Q347 445 369 434T391 385V367Q404 375 410 380T419 389T423 393T427 394Q432 394 432 388Q432 382 431 377T429 365Q366 311 296 265T151 167Q151 143 154 118T167 73T194 39T241 26Q260 26 279 33T316 51T350 75T380 100L394 79ZM307 310Q313 335 313 362Q313 381 306 396T276 412Q246 412 223 389T184 332T160 263T151 202L307 310Z"  />
<glyph unicode="f" horiz-adv-x="296" d="M43 396L48 426H110Q118 477 128 526T164 616Q190 658 232 685T326 712Q336 712 349 710T374 703T394 690T402 668Q402 654 391 647T367 640Q344 640 331 652T306 681Q276 675 259 645T231 576T216 495T209 426H287L282 396H206L169 39Q162 -31 143 -79T98 -160T46 -210T-5 -236T-46 -247T-67 -249Q-79 -249 -91 -247T-114 -240T-131 -226T-138 -204Q-138 -190 -127 -182T-102 -174Q-82 -174 -67 -186T-40 -214Q-37 -214 -25 -211T4 -189T37 -131T62 -20Q63 -10 66 15T73 75T81 151T90 236T99 320T107 396H43Z"  />
<glyph unicode="g" horiz-adv-x="481" d="M86 -133Q86 -159 97 -177T127 -206T166 -222T208 -227Q243 -227 270 -219T317 -197T346 -168T356 -137Q356 -116 347 -102T317 -76T267 -55T193 -33Q174 -37 155 -45T121 -65T96 -94T86 -133ZM402 377Q408 362 411 349T414 319Q414 278 398 243T354 181T290 140T214 124Q204 124 194 125T174 128Q169 122 165 115T160 99Q160 85 174 75T207 56T247 41T280 31Q307 23 337 13T391 -12T432 -50T448 -106Q448 -138 429 -166T376 -215T293 -248T188 -260Q161 -260 127 -257T64 -242T14 -209T-6 -151Q-6 -122 10 -99T52 -58T106 -31T160 -15V-13Q150 -9 139 -3T119 10T104 28T98 51Q98 74 114 96T142 136Q67 163 67 245Q67 285 82 321T125 385T187 429T263 445Q289 445 309 441T348 432Q366 427 381 423T411 418Q430 418 437 423T448 435Q452 441 454 446T464 452Q471 452 472 447T474 437Q474 430 472 419T466 391Q464 384 460 379T438 373Q431 373 423 374T402 377ZM252 415Q225 415 208 400T181 362T167 313T163 267Q163 250 165 231T174 194T194 166T228 154Q256 154 273 169T301 208T314 258T318 306Q318 322 316 341T306 376T286 404T252 415Z"  />
<glyph unicode="h" horiz-adv-x="519" d="M55 662Q77 672 104 680T156 693T202 702T232 705Q242 705 244 701T247 685Q247 658 241 606T225 492T206 367T189 255L191 253Q204 283 223 316T266 378T319 426T382 445Q401 445 414 437T434 415T445 385T448 352Q448 341 446 318T441 265T434 205T427 146T421 99T419 74Q419 71 419 66T420 56T424 47T431 43Q436 43 445 46T464 55T484 64T499 72L507 49Q492 37 469 26T422 6T374 -8T338 -13Q330 -13 326 -7T320 8T318 25T317 39Q317 64 322 103T334 186T346 270T352 340Q352 353 347 364T325 375Q310 375 296 366T271 343T250 314T235 289Q216 255 204 226T184 165T170 94T155 0H58Q63 31 71 88T88 214T106 354T122 486T133 586T138 632Q138 639 137 647T126 655Q115 655 99 649T63 637L55 662Z"  />
<glyph unicode="i" horiz-adv-x="278" d="M26 394Q46 406 72 415T122 431T167 441T197 445Q205 445 208 442T212 425Q212 389 206 340T193 239T179 142T173 68Q173 65 173 60T174 50T178 41T185 37Q190 37 199 40T218 49T238 58T253 66L261 43Q246 31 223 20T176 0T128 -14T92 -19Q84 -19 80 -13T74 2T72 19T71 33Q71 53 74 83T81 148T90 218T100 282T107 332T110 358Q110 372 109 382T96 392Q84 392 65 384T34 370L26 394ZM167 522Q147 522 135 533T122 565Q122 578 128 591T143 613T165 629T191 635Q210 635 221 622T232 592Q232 579 227 567T213 544T192 528T167 522Z"  />
<glyph unicode="j" horiz-adv-x="278" d="M-96 -156Q-75 -156 -59 -170T-31 -201Q-18 -199 -2 -189T30 -154T61 -84T84 32Q91 90 98 147T112 250T123 325T128 358Q128 372 127 382T114 392Q102 392 83 384T52 370L44 394Q64 406 90 415T140 431T185 441T215 445Q223 445 226 442T230 425Q230 407 226 366T215 269T200 150T182 25Q173 -39 153 -83T107 -155T55 -199T4 -222T-37 -231T-59 -232Q-70 -232 -83 -230T-107 -223T-125 -209T-133 -188Q-133 -172 -122 -164T-96 -156ZM185 522Q165 522 153 533T140 565Q140 578 146 591T161 613T183 629T209 635Q228 635 239 622T250 592Q250 579 245 567T231 544T210 528T185 522Z"  />
<glyph unicode="k" horiz-adv-x="500" d="M483 63Q464 46 442 32T400 6T365 -12T345 -19Q340 -19 331 -11T309 21T277 86T234 193Q260 197 283 209T323 239T351 281T361 332Q361 347 353 362T327 377Q313 377 300 370T275 351T254 327T237 304Q218 275 205 248T183 188T166 109T151 0H58Q63 31 71 88T88 214T106 354T122 486T133 586T138 632Q138 639 137 647T126 655Q115 655 99 649T63 637L55 662Q77 672 104 680T156 693T202 702T232 705Q242 705 244 701T247 685Q247 662 242 614T228 507T211 390T196 284L198 282Q211 308 230 336T273 389T325 429T386 445Q422 445 439 421T457 363Q457 333 447 308T419 262T377 227T325 205Q329 195 340 171T364 121T392 76T419 56Q430 56 444 66T469 84L483 63Z"  />
<glyph unicode="l" horiz-adv-x="278" d="M260 48Q231 30 204 17T155 -4T116 -15T92 -19Q83 -19 78 -11T71 9T69 33T68 53Q68 66 70 96T77 166T88 255T100 352Q106 401 111 448T121 533T128 597T131 632Q131 639 130 647T119 655Q108 655 92 649T56 637L48 662Q70 672 97 680T149 693T195 702T225 705Q235 705 237 701T240 685Q240 663 237 629T229 552T218 463T205 369Q198 322 192 277T181 195T173 129T170 87Q170 81 170 74T171 59T176 47T184 42Q188 42 197 45T216 54T235 65T249 73L260 48Z"  />
<glyph unicode="m" horiz-adv-x="759" d="M310 0Q317 69 324 122T336 216T345 284T348 330Q348 346 345 360T328 375Q313 375 299 366T274 343T253 314T238 289Q219 255 207 226T187 165T173 94T158 0H61Q67 45 75 100T90 206T102 299T107 358Q107 372 106 382T93 392Q81 392 62 384T31 370L23 394Q43 406 69 415T119 431T164 441T194 445Q202 445 205 442T209 425Q209 409 208 393T204 356T198 311T192 255L194 253Q207 283 226 316T269 378T322 426T385 445Q401 445 411 436T428 413T437 383T440 351Q440 327 439 303T437 255L439 253Q450 278 467 311T508 374T560 424T622 445Q641 445 654 437T674 415T685 385T688 352Q688 341 686 318T681 265T674 205T667 146T661 99T659 74Q659 71 659 66T660 56T664 47T671 43Q676 43 685 46T704 55T724 64T739 72L747 49Q732 37 709 26T662 6T614 -8T578 -13Q570 -13 566 -7T560 8T558 25T557 39Q557 62 562 101T574 183T586 269T592 340Q592 353 587 364T565 375Q553 375 541 366T517 344T497 318T483 295Q458 252 445 211T425 131T414 60T404 0H310Z"  />
<glyph unicode="n" horiz-adv-x="519" d="M20 394Q40 406 66 415T116 431T161 441T191 445Q199 445 202 442T206 425Q206 396 200 357T189 255L191 253Q204 283 223 316T266 378T319 426T382 445Q401 445 414 437T434 415T445 385T448 352Q448 341 446 318T441 265T434 205T427 146T421 99T419 74Q419 71 419 66T420 56T424 47T431 43Q436 43 445 46T464 55T484 64T499 72L507 49Q492 37 469 26T422 6T374 -8T338 -13Q330 -13 326 -7T320 8T318 25T317 39Q317 64 322 103T334 186T346 270T352 340Q352 353 347 364T325 375Q310 375 296 366T271 343T250 314T235 289Q216 255 204 226T184 165T170 94T155 0H58Q64 45 72 100T87 206T99 299T104 358Q104 372 103 382T90 392Q78 392 59 384T28 370L20 394Z"  />
<glyph unicode="o" horiz-adv-x="481" d="M184 -19Q157 -19 131 -12T83 13T48 61T34 136Q34 187 50 241T100 341T183 415T300 445Q327 445 354 438T402 413T436 365T450 290Q450 239 434 185T384 85T301 11T184 -19ZM215 14Q253 14 278 42T318 109T339 190T345 261Q345 280 343 306T334 355T311 395T269 412Q231 412 206 384T166 317T145 236T139 165Q139 146 141 120T150 71T173 31T215 14Z"  />
<glyph unicode="p" horiz-adv-x="500" d="M227 -258H-23L-18 -228Q11 -228 18 -226T27 -207L97 349Q98 355 99 363T100 375Q100 380 97 386T86 392Q74 392 55 384T24 370L16 394Q36 406 62 415T112 431T157 441T187 445Q195 445 198 442T202 425Q202 402 199 362T188 255L190 253Q203 283 222 316T265 378T318 426T381 445Q410 445 429 432T459 398T474 352T479 303Q479 243 458 186T398 83T306 11T188 -17Q179 -17 171 -17T152 -15L137 -149Q135 -166 134 -178T133 -200Q133 -221 139 -224T159 -228H232L227 -258ZM157 17Q165 15 171 14T182 13Q236 13 273 42T332 111T364 196T374 272Q374 285 373 303T366 337T352 364T327 375Q307 375 288 360T253 322T225 276T205 236Q185 187 175 133T157 17Z"  />
<glyph unicode="q" horiz-adv-x="500" d="M453 -213Q432 -222 406 -230T355 -244T311 -254T284 -258Q276 -258 274 -254T271 -235Q271 -212 281 -122T317 136L315 138Q302 113 284 86T243 35T193 -4T136 -19Q109 -19 90 -6T60 29T43 74T38 122Q38 181 60 237T122 338T215 410T330 438Q360 438 383 435T430 426Q430 452 434 457T451 462H469Q464 440 456 392T437 282T417 151T398 19T384 -94T378 -170Q378 -178 380 -190T393 -203Q396 -203 403 -201T419 -197T435 -192T445 -188L453 -213ZM191 51Q213 51 239 71T290 133T333 243T360 403Q345 408 332 408Q284 408 249 382T190 315T155 228T143 141Q143 130 145 115T152 85T166 61T191 51Z"  />
<glyph unicode="r" horiz-adv-x="407" d="M73 0Q79 45 87 100T102 206T114 299T119 358Q119 372 118 382T105 392Q93 392 74 384T43 370L35 394Q55 406 81 415T131 431T176 441T206 445Q214 445 217 442T221 425Q221 409 220 393T216 356T210 311T204 255L206 253Q216 277 232 310T271 373T321 424T379 445Q395 445 407 436T420 410Q420 390 404 380T369 370Q348 370 326 381Q313 375 302 364T280 338T260 308T245 280Q230 251 220 229T202 177T187 107T170 0H73Z"  />
<glyph unicode="s" horiz-adv-x="389" d="M244 83Q244 106 232 125T200 160T158 193T117 227T85 266T72 314Q72 347 89 372T132 413T189 437T249 445Q259 445 277 443T313 436T343 422T356 397Q356 382 344 375T318 367Q296 367 277 379T252 414Q247 415 244 415T238 415Q211 415 188 399T164 353Q164 332 177 315T211 282T254 249T298 214T331 171T345 116Q345 81 328 56T285 14T226 -11T163 -19Q149 -19 127 -16T82 -6T43 15T27 47Q27 64 38 71T63 79Q89 79 108 61T133 18Q141 13 147 12T163 11Q195 11 219 30T244 83Z"  />
<glyph unicode="t" horiz-adv-x="315" d="M213 426H305L300 396H209Q200 349 193 303T179 215T170 141T166 88Q166 80 167 71T171 54T180 41T198 35Q213 35 235 44T282 69L294 46Q279 34 259 22T218 1T174 -13T132 -19Q92 -19 78 3T64 61Q64 97 68 139T79 225T94 312T111 396H59L64 426Q89 426 96 426T112 431Q122 436 137 454T166 493T191 532T206 557L235 559L213 426Z"  />
<glyph unicode="u" horiz-adv-x="519" d="M458 426Q438 300 431 222T424 111Q424 107 424 96T425 72T430 51T438 42Q446 42 460 48T498 65L507 43Q483 29 458 18T409 -1T369 -14T346 -19Q336 -19 333 -9T329 10Q329 37 330 55T331 92T333 130T334 180L332 182Q323 155 305 120T262 54T207 2T144 -19Q125 -19 113 -11T93 9T82 38T79 71Q79 99 83 145T94 236T104 316T109 358Q109 372 108 382T95 392Q87 392 74 387T39 372L30 394Q50 406 76 415T126 431T171 441T201 445Q209 445 212 443T216 429Q216 414 213 388T206 330T196 265T186 200T178 144T175 105Q175 91 179 76T203 60Q216 60 228 68T250 88T269 113T283 135Q307 174 320 207T340 275T353 345T366 426H458Z"  />
<glyph unicode="v" horiz-adv-x="463" d="M432 426Q423 364 399 300T345 179T287 78T242 9Q232 -5 224 -13T210 -22Q204 -22 203 -16T199 -5Q172 104 151 177T115 294T88 358T70 377Q67 377 60 374T46 367T31 358T20 352L8 376Q26 389 50 401T97 423T138 439T161 445Q167 445 175 426T194 375T214 305T235 228T253 157T266 103Q282 125 300 159T334 232T360 308T370 375Q370 389 364 393T350 399T336 402T330 413Q330 423 337 424T353 426H432Z"  />
<glyph unicode="w" horiz-adv-x="685" d="M654 426Q649 379 635 333T603 243T564 162T525 93T491 40T469 9Q459 -5 451 -13T437 -22Q431 -22 429 -16T426 -5Q413 66 398 133T357 266Q341 235 320 199T277 127T235 60T202 9Q192 -5 184 -13T170 -22Q164 -22 162 -16T159 -5Q143 96 131 168T109 286T90 355T70 377Q67 377 60 374T46 367T31 358T20 352L8 376Q26 389 50 401T97 423T138 439T161 445Q165 445 172 433T190 387T213 289T238 123Q280 186 314 253T371 393Q373 401 377 413T391 426Q398 426 404 418T414 400T422 380T427 366Q436 334 448 295T470 218T489 152T499 114Q515 137 532 170T563 238T586 309T595 372Q595 387 589 392T576 398T562 401T556 412Q556 423 565 424T593 426H654Z"  />
<glyph unicode="x" horiz-adv-x="519" d="M312 235Q330 198 347 165T380 108T406 69T424 54Q428 54 435 58T449 68T464 79T476 88L490 69Q474 50 452 34T409 6T370 -12T345 -19Q337 -19 327 -5T303 33T275 88T242 155Q227 130 207 100T161 43T106 -1T44 -19Q27 -19 11 -9T-5 21Q-5 38 9 47T40 56Q55 56 67 50T90 34Q100 35 117 50T154 87T192 136T225 188Q176 287 151 330T115 374Q107 374 92 365T67 351L53 374Q72 388 95 401T140 423T178 439T197 445Q200 445 205 437T222 409T251 355T294 267Q308 289 326 319T366 378T413 425T469 445Q486 445 501 437T516 409Q516 390 501 380T468 370Q454 370 446 374T426 384Q415 381 402 367T374 331T343 284T312 235Z"  />
<glyph unicode="y" horiz-adv-x="481" d="M19 373Q46 391 71 404T118 427T154 440T173 445Q179 445 193 417T225 341T261 227T294 87Q308 111 326 151T361 233T389 314T401 375Q401 389 395 393T381 399T367 402T361 413Q361 423 368 424T384 426H463Q458 384 436 321T380 188T305 46T222 -83Q204 -107 180 -134T128 -183T69 -220T4 -235Q-5 -235 -15 -233T-34 -227T-48 -215T-54 -196Q-54 -177 -40 -169T-8 -160Q11 -160 25 -167T52 -189Q77 -182 101 -163T146 -120T184 -69T213 -20V-11Q213 6 206 41T188 120T162 208T133 291T105 352T83 376Q75 376 58 366T32 349L19 373Z"  />
<glyph unicode="z" horiz-adv-x="481" d="M18 -11Q30 20 68 57T158 140T265 239T370 355L368 357Q355 348 338 341T302 334Q276 334 256 342T217 361T181 380T145 389Q134 389 124 384T112 365Q143 349 143 313Q143 299 135 287T111 274Q91 274 82 292T73 327Q73 354 85 376T116 413T159 436T208 445Q236 445 262 438T312 423T358 408T401 401Q417 401 423 407T433 421T441 435T457 442H479Q464 409 441 380T394 325Q379 308 359 288T308 238T236 168T135 70L137 68Q144 73 151 75T170 78Q202 78 235 59T303 17T369 -25T430 -44Q441 -44 451 -41T473 -34L484 -56Q470 -65 453 -73T416 -88T379 -99T344 -103Q312 -103 282 -85T221 -44T159 -2T96 17Q82 17 71 10T53 -11H18Z"  />
<glyph unicode="{" horiz-adv-x="352" d="M324 677Q298 677 284 664T261 632T249 591T244 553L228 419Q221 364 204 335T144 292V290Q165 284 176 273T192 250T199 227T200 208Q200 182 197 151T188 87Q183 55 180 26T176 -24Q176 -36 177 -49T185 -72T202 -88T232 -95L227 -123Q183 -123 159 -115T121 -92T105 -60T102 -21Q102 -1 105 33T114 102Q119 138 122 169T126 217Q126 222 125 232T119 252T101 273T68 290V292Q112 305 129 331T152 405L171 566Q176 610 188 637T221 679T268 699T329 705L324 677Z"  />
<glyph unicode="|" horiz-adv-x="226" d="M89 -216V694H136V-216H89Z"  />
<glyph unicode="}" horiz-adv-x="352" d="M8 -95Q33 -95 48 -82T71 -50T83 -9T88 29L104 163Q111 218 128 247T188 290V292Q167 298 156 309T140 332T133 355T132 374Q132 400 135 431T144 495Q149 527 152 556T156 606Q156 618 155 631T147 654T130 670T100 677L105 705Q148 705 173 697T211 674T227 642T230 603Q230 583 227 549T218 480Q213 444 210 413T206 365Q206 360 207 350T213 330T231 309T264 292V290Q220 276 203 251T180 177L161 16Q156 -28 144 -55T111 -97T64 -117T3 -123L8 -95Z"  />
<glyph unicode="~" horiz-adv-x="519" d="M347 238Q316 238 291 249T238 278Q222 289 202 296T166 304Q133 304 115 286T82 237L47 253Q51 269 59 286T81 319T117 343T169 353Q198 353 224 343T273 318Q296 304 314 296T353 287Q381 287 401 305T436 355L472 338Q460 294 429 266T347 238Z"  />
<glyph unicode="&#xA0;" horiz-adv-x="259" />
<glyph unicode="&#xA1;" horiz-adv-x="315" d="M181 333Q155 333 140 348T125 389Q125 415 140 430T181 445Q207 445 222 430T237 389Q237 363 222 348T181 333ZM186 285Q183 214 180 143T173 7T168 -112T168 -200H124Q102 -200 90 -200T72 -196T65 -187T63 -168Q63 -130 72 -73T96 49T125 175T153 285H186Z"  />
<glyph unicode="&#xA2;" horiz-adv-x="519" d="M256 507Q229 489 210 461T178 399T160 331T154 267Q154 250 156 232T164 196T180 165T205 144L256 507ZM208 -35H180L198 91Q196 90 189 90Q114 90 80 133T45 248Q45 306 63 355T112 443T181 507T261 544L279 669H307L290 551Q305 554 320 554Q330 554 345 552T374 545T398 530T408 507Q408 490 395 482T366 474Q342 474 323 488T294 524L286 522L232 136Q234 135 240 135Q276 135 313 154T375 198L391 176Q359 141 317 120T226 94L208 -35Z"  />
<glyph unicode="&#xA3;" horiz-adv-x="519" d="M-43 18Q-8 36 20 54T69 103T103 188T124 330H45L50 363H128Q132 409 147 459T191 552T263 621T368 649Q379 649 396 645T428 632T455 610T467 580Q467 569 458 561T438 553Q412 553 396 573T375 617Q370 619 365 620T355 621Q317 621 293 593T255 524T234 439T226 363H321L316 330H223Q217 277 210 239T188 171T148 114T81 60L83 58Q110 67 138 73T197 79Q223 79 242 76T286 65L313 57Q329 52 344 49T376 45Q396 45 411 57T427 90Q427 100 424 106T416 115T408 120T404 125Q404 130 416 130T441 134Q462 128 472 110T483 70Q483 46 472 28T443 -2T404 -20T361 -26Q329 -26 301 -18T243 1Q208 14 178 23T109 33Q73 33 38 20T-27 -10L-43 18Z"  />
<glyph unicode="&#xA4;" horiz-adv-x="519" d="M443 140L376 206Q319 165 259 165Q234 165 204 173T141 206L75 140L42 174L108 238Q87 270 78 298T69 354Q69 381 78 410T108 470L42 535L75 569L141 503Q176 526 205 534T259 543Q285 543 315 534T376 503L443 569L476 535L409 470Q432 437 441 408T450 354Q450 328 441 300T409 238L476 174L443 140ZM402 355Q402 386 390 412T358 457T312 486T259 497Q229 497 203 486T157 455T127 410T116 355Q116 326 127 300T158 255T204 224T259 212Q288 212 314 223T359 254T390 300T402 355Z"  />
<glyph unicode="&#xA5;" horiz-adv-x="519" d="M206 346L136 529Q127 553 120 567T106 589T94 599T85 602H39L44 635H262L257 602H222Q214 602 209 601T204 595Q204 592 213 572T236 519T266 445T297 357Q362 463 393 517T424 592Q424 600 419 601T407 602H370L375 635H542L537 603H504Q494 603 491 601T482 591Q447 538 406 479T321 346H461L456 313H304L293 234H444L439 201H289L273 64Q271 44 279 39T299 33H356L351 0H91L96 33H146Q163 33 167 34T174 47L195 201H45L50 234H200L211 313H61L66 346H206Z"  />
<glyph unicode="&#xA6;" horiz-adv-x="226" d="M89 361V694H136V361H89ZM89 -215V117H136V-215H89Z"  />
<glyph unicode="&#xA7;" horiz-adv-x="500" d="M261 370Q245 370 226 366T191 352T164 329T153 296Q153 276 164 261T193 232T229 209T266 191Q302 196 326 217T351 273Q351 293 344 307T325 333T296 353T261 370ZM377 527Q380 535 382 541T384 555Q384 572 376 585T356 606T327 619T296 624Q278 624 261 619T229 605T206 580T197 545Q197 520 214 501T256 465T311 432T366 397T409 353T426 297Q426 269 416 248T388 211T349 185T304 167Q338 147 362 124T387 57Q387 34 375 10T339 -35T277 -69T190 -83Q171 -83 147 -79T102 -66T67 -40T52 0Q52 15 59 30T81 53L128 64Q120 53 114 42T107 16Q107 -2 116 -14T138 -35T168 -46T200 -50Q219 -50 238 -45T274 -30T301 -2T312 40Q312 65 295 83T251 117T195 148T139 181T96 222T78 277Q78 308 92 330T128 366T178 387T232 396V398Q213 408 194 420T159 448T133 483T123 527Q123 549 134 571T168 612T225 642T304 654Q321 654 343 650T385 637T419 614T433 577Q433 559 421 542L377 527Z"  />
<glyph unicode="&#xA8;" horiz-adv-x="278" d="M227 517Q210 517 200 528T190 556Q190 576 205 590T240 605Q257 605 267 595T278 568Q278 546 264 532T227 517ZM105 517Q88 517 78 528T68 556Q68 576 83 590T118 605Q135 605 145 595T156 568Q156 546 142 532T105 517Z"  />
<glyph unicode="&#xA9;" horiz-adv-x="800" d="M210 314Q210 362 228 400T277 464T345 505T422 519Q469 519 497 512T549 496L545 452Q544 448 543 445T536 442Q531 442 529 449Q528 455 527 458T520 467Q506 479 483 484T439 489Q405 489 379 474T336 435T309 381T300 320Q300 290 309 262T335 211T377 174T434 160Q446 160 463 163T497 174T526 191T542 217Q543 221 544 224T551 227Q558 227 558 221Q558 217 557 200T553 160Q523 146 486 138T413 130Q321 130 266 175T210 314ZM400 21Q461 21 514 44T606 107T667 201T690 317Q690 378 668 432T606 526T514 590T400 613Q338 613 285 590T193 527T132 432T110 317Q110 255 132 202T193 108T285 44T400 21ZM400 -20Q330 -20 268 6T160 78T86 185T58 317Q58 387 85 448T159 555T268 627T400 654Q470 654 532 628T640 555T714 448T742 317Q742 247 715 186T641 79T532 7T400 -20Z"  />
<glyph unicode="&#xAA;" horiz-adv-x="350" d="M145 418Q160 418 173 428T192 448Q217 483 228 526T245 624H232Q204 624 183 608T146 569T124 519T116 469Q116 462 117 454T121 437T130 424T145 418ZM350 414Q333 401 315 392T280 376T252 368T234 365Q225 365 223 374T220 390Q220 415 221 430T223 463H221Q214 448 203 431T178 399T146 375T108 365Q68 365 53 392T37 459Q37 483 48 515T84 577T146 628T236 649Q247 649 263 648T298 644Q297 655 302 660T329 666Q315 607 305 550T294 435Q294 427 295 419T299 410Q303 410 314 415T340 429L350 414Z"  />
<glyph unicode="&#xAB;" horiz-adv-x="519" d="M360 30Q342 87 315 138T241 224Q294 261 336 309T401 418L434 401Q427 351 403 306T345 224Q355 206 364 183T380 136T389 88T388 43L360 30ZM180 30Q162 87 135 138T61 224Q114 261 156 309T221 418L254 401Q247 351 223 306T165 224Q175 206 184 183T200 136T209 88T208 43L180 30Z"  />
<glyph unicode="&#xAC;" horiz-adv-x="519" d="M390 165V344H81V391H438V165H390Z"  />
<glyph unicode="&#xAD;" horiz-adv-x="333" d="M82 187Q52 187 43 184T29 180Q23 180 23 185Q23 188 38 209T72 260H237Q252 260 261 261T275 263T284 266T289 267Q295 267 295 262Q295 259 280 238T247 187H82Z"  />
<glyph unicode="&#xAE;" horiz-adv-x="800" d="M366 331H387Q402 331 417 335T444 348T463 371T471 405Q471 418 466 432T451 460T423 481T382 490Q366 490 366 485V331ZM253 144V169H279Q289 169 289 178V412Q289 441 288 456T285 479T278 488T266 490H240V515H419Q458 515 483 505T522 479T542 447T548 414Q548 376 525 353T460 322L505 255Q510 247 518 235T535 210T553 186T571 169H587V144H521Q511 144 504 144T492 149Q479 162 456 198T394 308H366V247Q366 218 366 203T369 180T376 171T387 169H414V144H253ZM690 317Q690 378 668 432T606 526T514 590T400 613Q338 613 285 590T193 527T132 432T110 317Q110 255 132 202T193 108T285 44T400 21Q461 21 514 44T606 107T667 201T690 317ZM742 317Q742 247 715 186T641 79T532 7T400 -20Q330 -20 268 6T160 78T86 185T58 317Q58 387 85 448T159 555T268 627T400 654Q470 654 532 628T640 555T714 448T742 317Z"  />
<glyph unicode="&#xAF;" horiz-adv-x="278" d="M294 533H65L72 584H301L294 533Z"  />
<glyph unicode="&#xB0;" horiz-adv-x="350" d="M174 669Q144 669 122 647T99 594Q99 561 121 538T176 515Q208 515 229 538T251 593Q251 624 229 646T174 669ZM174 716Q199 716 222 707T262 680T289 641T299 593Q299 568 290 546T265 506T226 478T177 468Q150 468 127 478T87 505T61 545T51 594Q51 619 61 641T88 679T127 706T174 716Z"  />
<glyph unicode="&#xB1;" horiz-adv-x="519" d="M282 284V101H235V284H55V331H235V520H282V331H463V284H282ZM55 0V47H463V0H55Z"  />
<glyph unicode="&#xB2;" horiz-adv-x="337" d="M-3 400Q-14 400 -14 405Q-14 409 -5 416T15 435L144 561Q169 585 185 619T202 696Q202 722 190 741T142 761Q131 761 120 759T100 748V732Q100 726 98 718T90 702T77 689T60 684Q49 684 44 694T39 716Q39 728 48 741T76 767T121 787T183 795Q239 795 268 770T298 705Q298 669 277 636T224 572T156 516T90 467V465Q112 466 139 466T191 468T236 469T264 470Q277 470 281 477T294 485Q301 485 301 474Q301 469 295 451T279 400H-3Z"  />
<glyph unicode="&#xB3;" horiz-adv-x="337" d="M43 750Q72 770 111 782T194 795Q212 795 229 791T260 779T282 757T291 724Q291 704 281 688T255 659T218 638T175 625V623Q202 622 225 617T265 600T292 571T302 529Q302 508 291 484T255 439T194 404T104 390Q90 390 70 392T31 399T-1 414T-14 439Q-14 456 -6 462T12 469Q33 469 46 452T64 420Q74 417 85 417Q110 417 132 425T170 449T196 484T206 527Q206 550 198 565T175 590T141 604T100 608L103 632Q143 632 170 652T198 711Q198 732 183 746T144 761Q119 761 96 752T53 730L43 750Z"  />
<glyph unicode="&#xB4;" horiz-adv-x="278" d="M93 519Q99 527 116 543T155 577T194 607T221 620Q224 620 229 616T238 606T247 594T254 584Q216 568 182 546T115 497L93 519Z"  />
<glyph unicode="&#xB5;" horiz-adv-x="519" d="M458 426Q438 300 431 222T424 111Q424 100 424 88T425 66T430 49T438 42Q443 42 451 45T469 52T487 59T498 65L507 43Q483 29 458 18T409 -1T369 -14T346 -19Q336 -19 333 -9T329 10Q329 37 330 55T331 92T333 130T334 180L332 182Q323 155 305 120T262 54T207 2T144 -19Q137 -19 132 -16T122 -10Q120 -26 117 -43T114 -80Q114 -92 118 -104T128 -127T138 -150T143 -172Q143 -196 129 -207T95 -218Q68 -218 60 -198T52 -151Q52 -137 56 -97T67 -2T81 116T97 238T111 347T120 426H217Q212 386 205 338T191 243T180 160T175 105Q175 91 179 76T203 60Q216 60 228 68T250 88T269 113T283 135Q307 174 320 207T340 275T353 345T366 426H458Z"  />
<glyph unicode="&#xB6;" horiz-adv-x="500" d="M26 448Q26 460 29 478T40 518T64 560T106 597T169 624T259 635H513L508 602H465Q449 602 446 598T441 575L359 -10Q357 -22 363 -31T380 -41H438L433 -74H284L379 602H330L235 -74H106L111 -41H137Q162 -41 168 -40T176 -27L225 335Q190 312 149 312Q119 312 97 323T58 352T34 395T26 448ZM263 601Q212 601 181 582T132 537T110 483T104 439Q104 424 107 409T117 381T137 360T167 351Q186 351 201 360T231 379L263 601Z"  />
<glyph unicode="&#xB7;" horiz-adv-x="259" d="M114 157Q88 157 73 172T58 213Q58 239 73 254T114 269Q140 269 155 254T170 213Q170 187 155 172T114 157Z"  />
<glyph unicode="&#xB8;" horiz-adv-x="278" d="M138 0Q137 -3 132 -9T122 -22T112 -37T107 -48Q107 -54 120 -59T150 -71T179 -89T193 -118Q193 -134 185 -145T163 -163T135 -173T107 -176Q100 -176 88 -174T63 -168T41 -157T32 -139Q32 -131 38 -127T51 -123Q65 -123 75 -132T92 -154H109Q121 -154 136 -149T152 -126Q152 -115 138 -107T107 -91T75 -78T61 -63Q61 -60 67 -51T81 -32T96 -13T106 0H138Z"  />
<glyph unicode="&#xB9;" horiz-adv-x="337" d="M42 400L46 425H95Q103 425 107 426T113 433Q118 469 124 508T135 584T144 648T150 688Q152 701 152 709T153 733Q153 744 152 750T142 757Q131 757 116 754T90 747L84 769Q152 789 241 795Q242 793 242 786Q242 757 229 674T199 461Q198 455 198 450T197 439Q197 433 199 429T210 425H262L258 400H42Z"  />
<glyph unicode="&#xBA;" horiz-adv-x="350" d="M338 557Q338 519 326 485T290 424T236 381T165 365Q57 365 57 462Q57 500 69 534T105 595T159 638T230 654Q338 654 338 557ZM214 629Q191 629 176 613T151 573T138 524T134 480Q134 468 135 453T142 423T156 400T181 390Q204 390 219 406T244 446T257 495T261 538Q261 550 260 565T253 595T239 619T214 629Z"  />
<glyph unicode="&#xBB;" horiz-adv-x="519" d="M145 426Q163 369 190 318T264 232Q211 195 169 147T104 38L71 55Q78 105 102 150T160 232Q149 250 140 273T125 320T116 368T117 413L145 426ZM325 426Q343 369 370 318T444 232Q391 195 349 147T284 38L251 55Q258 105 282 150T340 232Q329 250 320 273T305 320T296 368T297 413L325 426Z"  />
<glyph unicode="&#xBC;" horiz-adv-x="768" d="M51 262L55 287H104Q112 287 116 288T122 295Q127 331 133 370T144 446T153 510T159 550Q161 563 161 571T162 595Q162 606 161 612T151 619Q140 619 125 616T99 609L93 631Q161 651 250 657Q251 655 251 648Q251 619 238 536T208 323Q207 317 207 312T206 301Q206 295 208 291T219 287H271L267 262H51ZM663 688Q525 527 414 345T215 -38L157 -52Q175 -5 204 55T269 181T349 318T437 454T529 581T618 688H663ZM388 128Q388 151 401 168T428 197L603 362Q623 380 637 383T669 386L638 174H657Q670 174 677 176T688 182T695 187T702 190Q708 190 708 185Q708 177 701 158T689 128H632L612 -6Q584 -11 560 -16T532 -22Q525 -22 525 -17Q525 -16 527 -8T532 16T541 60T555 128H388ZM581 300L579 301Q534 256 501 227T451 174H561L581 300Z"  />
<glyph unicode="&#xBD;" horiz-adv-x="768" d="M409 0Q398 0 398 5Q398 9 407 16T427 35L556 161Q581 185 597 219T614 296Q614 322 602 341T554 361Q543 361 532 359T512 348V332Q512 326 510 318T502 302T489 289T472 284Q461 284 456 294T451 316Q451 328 460 341T488 367T533 387T595 395Q651 395 680 370T710 305Q710 269 689 236T636 172T568 116T502 67V65Q524 66 551 66T603 68T648 69T676 70Q689 70 693 77T706 85Q713 85 713 74Q713 69 707 51T691 0H409ZM658 688Q520 527 409 345T210 -38L152 -52Q170 -5 199 55T264 181T344 318T432 454T524 581T613 688H658ZM46 262L50 287H99Q107 287 111 288T117 295Q122 331 128 370T139 446T148 510T154 550Q156 563 156 571T157 595Q157 606 156 612T146 619Q135 619 120 616T94 609L88 631Q156 651 245 657Q246 655 246 648Q246 619 233 536T203 323Q202 317 202 312T201 301Q201 295 203 291T214 287H266L262 262H46Z"  />
<glyph unicode="&#xBE;" horiz-adv-x="768" d="M411 128Q411 151 424 168T451 197L626 362Q646 380 660 383T692 386L661 174H680Q693 174 700 176T711 182T718 187T725 190Q731 190 731 185Q731 177 724 158T712 128H655L635 -6Q607 -11 583 -16T555 -22Q548 -22 548 -17Q548 -16 550 -8T555 16T564 60T578 128H411ZM604 300L602 301Q557 256 524 227T474 174H584L604 300ZM695 688Q557 527 446 345T247 -38L189 -52Q207 -5 236 55T301 181T381 318T469 454T561 581T650 688H695ZM77 612Q106 632 145 644T228 657Q246 657 263 653T294 641T316 619T325 586Q325 566 315 550T289 521T252 500T209 487V485Q236 484 259 479T299 462T326 433T336 391Q336 370 325 346T289 301T228 266T138 252Q124 252 104 254T65 261T33 276T20 301Q20 318 28 324T46 331Q67 331 80 314T98 282Q108 279 119 279Q144 279 166 287T204 311T230 346T240 389Q240 412 232 427T209 452T175 466T134 470L137 494Q177 494 204 514T232 573Q232 594 217 608T178 623Q153 623 130 614T87 592L77 612Z"  />
<glyph unicode="&#xBF;" horiz-adv-x="426" d="M272 281Q289 263 302 240T321 190Q258 139 221 104T165 43T140 -5T134 -52Q134 -79 144 -100T170 -135T204 -157T241 -164Q277 -164 295 -157T321 -141T332 -125T344 -117Q356 -117 356 -128Q356 -132 353 -141T346 -162T337 -183T332 -197Q275 -220 215 -220Q180 -220 147 -211T87 -184T45 -137T28 -69Q28 -33 40 -7T74 42T125 83T187 125Q207 138 222 147T236 166Q236 172 232 181T223 198T211 211T200 218Q196 219 193 220T189 227Q189 232 199 239T222 253T250 268T272 281ZM284 333Q258 333 243 348T228 389Q228 415 243 430T284 445Q310 445 325 430T340 389Q340 363 325 348T284 333Z"  />
<glyph unicode="&#xC0;" horiz-adv-x="648" d="M362 33H386Q415 33 420 34T426 42Q426 47 424 58T418 92T406 148T388 234H177Q162 204 147 175T121 121T102 76T94 44Q94 36 100 35T131 33H169L164 0H-30L-25 33H13Q27 33 33 44L349 647Q359 649 372 651T397 656T418 659T431 661Q445 661 445 649Q445 641 441 638T432 633T422 626T418 613Q418 602 427 556T452 443T484 296T518 136Q526 97 531 77T542 46T554 35T571 33H604L599 0H357L362 33ZM199 273H381L330 525H328L199 273ZM383 687Q351 714 317 736T244 774Q247 778 251 784T259 796T269 806T277 810Q284 810 303 797T343 767T381 734T405 709L383 687Z"  />
<glyph unicode="&#xC1;" horiz-adv-x="648" d="M362 33H386Q415 33 420 34T426 42Q426 47 424 58T418 92T406 148T388 234H177Q162 204 147 175T121 121T102 76T94 44Q94 36 100 35T131 33H169L164 0H-30L-25 33H13Q27 33 33 44L349 647Q359 649 372 651T397 656T418 659T431 661Q445 661 445 649Q445 641 441 638T432 633T422 626T418 613Q418 602 427 556T452 443T484 296T518 136Q526 97 531 77T542 46T554 35T571 33H604L599 0H357L362 33ZM199 273H381L330 525H328L199 273ZM358 709Q364 717 381 733T420 767T459 797T486 810Q489 810 494 806T503 796T512 784T519 774Q481 758 447 736T380 687L358 709Z"  />
<glyph unicode="&#xC2;" horiz-adv-x="648" d="M362 33H386Q415 33 420 34T426 42Q426 47 424 58T418 92T406 148T388 234H177Q162 204 147 175T121 121T102 76T94 44Q94 36 100 35T131 33H169L164 0H-30L-25 33H13Q27 33 33 44L349 647Q359 649 372 651T397 656T418 659T431 661Q445 661 445 649Q445 641 441 638T432 633T422 626T418 613Q418 602 427 556T452 443T484 296T518 136Q526 97 531 77T542 46T554 35T571 33H604L599 0H357L362 33ZM199 273H381L330 525H328L199 273ZM404 803Q424 770 454 744T521 706Q513 699 506 693T488 687Q465 687 438 701T395 732Q385 724 371 716T340 702T307 691T279 687Q266 687 259 696T244 714Q289 724 331 746T404 803Z"  />
<glyph unicode="&#xC3;" horiz-adv-x="648" d="M362 33H386Q415 33 420 34T426 42Q426 47 424 58T418 92T406 148T388 234H177Q162 204 147 175T121 121T102 76T94 44Q94 36 100 35T131 33H169L164 0H-30L-25 33H13Q27 33 33 44L349 647Q359 649 372 651T397 656T418 659T431 661Q445 661 445 649Q445 641 441 638T432 633T422 626T418 613Q418 602 427 556T452 443T484 296T518 136Q526 97 531 77T542 46T554 35T571 33H604L599 0H357L362 33ZM199 273H381L330 525H328L199 273ZM279 712Q286 738 302 760T348 783Q361 783 375 779T403 769Q418 763 432 759T459 754Q476 754 485 762T501 786L526 780Q518 749 497 727T442 705Q427 705 413 709T384 719Q370 724 359 728T337 733Q323 733 316 725T303 705L279 712Z"  />
<glyph unicode="&#xC4;" horiz-adv-x="648" d="M362 33H386Q415 33 420 34T426 42Q426 47 424 58T418 92T406 148T388 234H177Q162 204 147 175T121 121T102 76T94 44Q94 36 100 35T131 33H169L164 0H-30L-25 33H13Q27 33 33 44L349 647Q359 649 372 651T397 656T418 659T431 661Q445 661 445 649Q445 641 441 638T432 633T422 626T418 613Q418 602 427 556T452 443T484 296T518 136Q526 97 531 77T542 46T554 35T571 33H604L599 0H357L362 33ZM199 273H381L330 525H328L199 273ZM447 707Q430 707 420 718T410 746Q410 766 425 780T460 795Q477 795 487 785T498 758Q498 736 484 722T447 707ZM325 707Q308 707 298 718T288 746Q288 766 303 780T338 795Q355 795 365 785T376 758Q376 736 362 722T325 707Z"  />
<glyph unicode="&#xC5;" horiz-adv-x="648" d="M362 33H386Q415 33 420 34T426 42Q426 47 424 58T418 92T406 148T388 234H177Q162 204 147 175T121 121T102 76T94 44Q94 36 100 35T131 33H169L164 0H-30L-25 33H13Q27 33 33 44L349 647Q359 649 372 651T397 656T418 659T431 661Q445 661 445 649Q445 641 441 638T432 633T422 626T418 613Q418 602 427 556T452 443T484 296T518 136Q526 97 531 77T542 46T554 35T571 33H604L599 0H357L362 33ZM199 273H381L330 525H328L199 273ZM377 681Q342 681 317 705T292 764Q292 783 299 799T320 828T350 848T385 855Q420 855 445 831T470 771Q470 752 463 736T442 707T412 688T377 681ZM379 718Q400 718 416 733T433 769Q433 790 419 804T384 818Q362 818 346 803T329 766Q329 746 344 732T379 718Z"  />
<glyph unicode="&#xC6;" horiz-adv-x="907" d="M441 359Q452 447 458 499T465 566Q465 573 464 586T451 602L266 359H441ZM550 371H638Q653 371 673 372T711 376T742 385T757 404L763 441H794L768 257H737L742 302Q743 310 743 312T743 317Q743 322 740 325T725 331T691 334T632 335H545L517 110Q514 84 514 68Q514 48 520 44T547 39Q587 39 629 39T708 45T773 62T812 94Q814 99 816 103T827 108Q838 108 838 95Q838 84 832 64T815 0H326L331 33H349Q380 33 388 34T396 47L436 323H243L191 248Q183 236 163 207T121 145T84 83T67 43Q67 35 74 34T84 33H145L140 0H-59L-54 33H-10Q-8 33 -3 35T8 49Q14 62 35 95T85 169T144 254T203 333L407 602H332L337 635H864L857 580Q856 575 856 568T855 553T850 541T841 535Q832 535 830 540T827 552T821 566T804 580Q778 591 735 593T639 596H611Q597 596 589 595T579 583L550 371Z"  />
<glyph unicode="&#xC7;" horiz-adv-x="667" d="M633 566Q632 554 630 546T618 538Q609 538 606 543T600 562Q600 571 591 580T564 598T522 612T465 618Q394 618 338 588T242 507T181 391T159 258Q159 209 171 165T209 88T274 36T367 17Q409 17 442 28T501 56T541 89T559 118Q562 129 564 135T577 141Q590 141 590 127Q590 119 586 99T575 34Q525 9 467 -4T352 -21Q346 -29 342 -36T337 -48Q337 -54 350 -59T380 -71T409 -89T423 -118Q423 -134 415 -145T393 -163T365 -173T337 -176Q330 -176 318 -174T293 -168T271 -157T262 -139Q262 -131 268 -127T281 -123Q295 -123 305 -132T322 -154H339Q351 -154 366 -149T382 -126Q382 -115 368 -107T337 -91T305 -78T291 -63Q291 -59 300 -47T319 -22Q256 -21 205 -4T118 46T61 129T41 245Q41 335 74 411T166 541T303 626T470 657Q512 657 555 651T639 630L633 566Z"  />
<glyph unicode="&#xC8;" horiz-adv-x="574" d="M452 257H421Q427 309 427 316Q427 321 424 324T409 330T375 334T316 335H229Q214 214 206 146T197 68Q197 48 204 44T231 39H258Q290 39 327 40T399 46T459 62T496 94Q498 99 501 103T511 108Q522 108 522 95Q522 84 516 64T499 0H10L15 33H41Q66 33 73 34T80 47Q80 50 85 86T97 176T113 293T129 413T142 513T147 570Q147 593 142 597T119 602H69L74 635H548L541 580Q540 575 540 568T539 553T534 541T525 535Q516 535 514 540T511 552T505 566T488 580Q462 591 419 593T323 596H295Q281 596 273 595T263 583L234 371H322Q337 371 357 372T395 376T426 385T441 404L447 441H478L452 257ZM361 687Q329 714 295 736T222 774Q225 778 229 784T237 796T247 806T255 810Q262 810 281 797T321 767T359 734T383 709L361 687Z"  />
<glyph unicode="&#xC9;" horiz-adv-x="574" d="M452 257H421Q427 309 427 316Q427 321 424 324T409 330T375 334T316 335H229Q214 214 206 146T197 68Q197 48 204 44T231 39H258Q290 39 327 40T399 46T459 62T496 94Q498 99 501 103T511 108Q522 108 522 95Q522 84 516 64T499 0H10L15 33H41Q66 33 73 34T80 47Q80 50 85 86T97 176T113 293T129 413T142 513T147 570Q147 593 142 597T119 602H69L74 635H548L541 580Q540 575 540 568T539 553T534 541T525 535Q516 535 514 540T511 552T505 566T488 580Q462 591 419 593T323 596H295Q281 596 273 595T263 583L234 371H322Q337 371 357 372T395 376T426 385T441 404L447 441H478L452 257ZM321 709Q327 717 344 733T383 767T422 797T449 810Q452 810 457 806T466 796T475 784T482 774Q444 758 410 736T343 687L321 709Z"  />
<glyph unicode="&#xCA;" horiz-adv-x="574" d="M452 257H421Q427 309 427 316Q427 321 424 324T409 330T375 334T316 335H229Q214 214 206 146T197 68Q197 48 204 44T231 39H258Q290 39 327 40T399 46T459 62T496 94Q498 99 501 103T511 108Q522 108 522 95Q522 84 516 64T499 0H10L15 33H41Q66 33 73 34T80 47Q80 50 85 86T97 176T113 293T129 413T142 513T147 570Q147 593 142 597T119 602H69L74 635H548L541 580Q540 575 540 568T539 553T534 541T525 535Q516 535 514 540T511 552T505 566T488 580Q462 591 419 593T323 596H295Q281 596 273 595T263 583L234 371H322Q337 371 357 372T395 376T426 385T441 404L447 441H478L452 257ZM362 803Q382 770 412 744T479 706Q471 699 464 693T446 687Q423 687 396 701T353 732Q343 724 329 716T298 702T265 691T237 687Q224 687 217 696T202 714Q247 724 289 746T362 803Z"  />
<glyph unicode="&#xCB;" horiz-adv-x="574" d="M452 257H421Q427 309 427 316Q427 321 424 324T409 330T375 334T316 335H229Q214 214 206 146T197 68Q197 48 204 44T231 39H258Q290 39 327 40T399 46T459 62T496 94Q498 99 501 103T511 108Q522 108 522 95Q522 84 516 64T499 0H10L15 33H41Q66 33 73 34T80 47Q80 50 85 86T97 176T113 293T129 413T142 513T147 570Q147 593 142 597T119 602H69L74 635H548L541 580Q540 575 540 568T539 553T534 541T525 535Q516 535 514 540T511 552T505 566T488 580Q462 591 419 593T323 596H295Q281 596 273 595T263 583L234 371H322Q337 371 357 372T395 376T426 385T441 404L447 441H478L452 257ZM395 707Q378 707 368 718T358 746Q358 766 373 780T408 795Q425 795 435 785T446 758Q446 736 432 722T395 707ZM273 707Q256 707 246 718T236 746Q236 766 251 780T286 795Q303 795 313 785T324 758Q324 736 310 722T273 707Z"  />
<glyph unicode="&#xCC;" horiz-adv-x="333" d="M270 0H10L15 33H41Q66 33 73 34T80 47Q80 50 85 86T97 176T113 293T129 413T142 513T147 570Q147 593 142 597T119 602H69L74 635H334L329 602H286Q270 602 267 598T262 575L198 80Q197 74 197 69T196 58Q196 49 201 41T217 33H275L270 0ZM226 687Q194 714 160 736T87 774Q90 778 94 784T102 796T112 806T120 810Q127 810 146 797T186 767T224 734T248 709L226 687Z"  />
<glyph unicode="&#xCD;" horiz-adv-x="333" d="M270 0H10L15 33H41Q66 33 73 34T80 47Q80 50 85 86T97 176T113 293T129 413T142 513T147 570Q147 593 142 597T119 602H69L74 635H334L329 602H286Q270 602 267 598T262 575L198 80Q197 74 197 69T196 58Q196 49 201 41T217 33H275L270 0ZM191 709Q197 717 214 733T253 767T292 797T319 810Q322 810 327 806T336 796T345 784T352 774Q314 758 280 736T213 687L191 709Z"  />
<glyph unicode="&#xCE;" horiz-adv-x="333" d="M270 0H10L15 33H41Q66 33 73 34T80 47Q80 50 85 86T97 176T113 293T129 413T142 513T147 570Q147 593 142 597T119 602H69L74 635H334L329 602H286Q270 602 267 598T262 575L198 80Q197 74 197 69T196 58Q196 49 201 41T217 33H275L270 0ZM227 803Q247 770 277 744T344 706Q336 699 329 693T311 687Q288 687 261 701T218 732Q208 724 194 716T163 702T130 691T102 687Q89 687 82 696T67 714Q112 724 154 746T227 803Z"  />
<glyph unicode="&#xCF;" horiz-adv-x="333" d="M270 0H10L15 33H41Q66 33 73 34T80 47Q80 50 85 86T97 176T113 293T129 413T142 513T147 570Q147 593 142 597T119 602H69L74 635H334L329 602H286Q270 602 267 598T262 575L198 80Q197 74 197 69T196 58Q196 49 201 41T217 33H275L270 0ZM265 707Q248 707 238 718T228 746Q228 766 243 780T278 795Q295 795 305 785T316 758Q316 736 302 722T265 707ZM143 707Q126 707 116 718T106 746Q106 766 121 780T156 795Q173 795 183 785T194 758Q194 736 180 722T143 707Z"  />
<glyph unicode="&#xD0;" horiz-adv-x="722" d="M20 371H115Q125 444 131 497T138 570Q138 593 133 597T110 602H60L65 635H445Q495 635 540 619T619 569T674 486T694 369Q694 351 689 317T668 241T623 157T547 80T430 23T266 0H1L6 33H24Q39 33 48 33T62 34T68 39T71 47Q79 109 89 184T110 332H15L20 371ZM219 332Q205 229 196 160T187 71Q187 57 190 48T211 39H266Q335 39 384 57T468 105T524 170T556 241T572 306T576 354Q576 397 566 440T530 517T464 574T360 596H271Q260 596 258 592T254 583Q246 525 239 471T224 371H381L376 332H219Z"  />
<glyph unicode="&#xD1;" horiz-adv-x="704" d="M549 167Q561 248 570 318T585 442T594 532T597 577Q597 595 590 598T564 602H517L522 635H722L717 602H673Q659 602 654 599T646 579L564 16Q564 8 563 -1T551 -11Q547 -11 540 -4T527 12T514 31T506 43L183 502Q169 428 158 351T138 209T124 102T119 56Q119 39 126 36T151 33H215L210 0H4L9 33H43Q57 33 62 36T70 56Q77 100 85 150T102 249T119 346T133 431T142 496T146 532Q146 542 141 554T126 577T106 595T84 602H45L50 635H222L549 167ZM293 712Q300 738 316 760T362 783Q375 783 389 779T417 769Q432 763 446 759T473 754Q490 754 499 762T515 786L540 780Q532 749 511 727T456 705Q441 705 427 709T398 719Q384 724 373 728T351 733Q337 733 330 725T317 705L293 712Z"  />
<glyph unicode="&#xD2;" horiz-adv-x="722" d="M305 -22Q179 -22 110 48T41 243Q41 324 69 399T147 531T267 622T422 657Q548 657 617 587T686 392Q686 311 658 236T580 104T460 13T305 -22ZM159 245Q159 210 166 170T191 95T240 37T322 14Q372 14 417 38T495 110T548 228T568 390Q568 425 561 465T536 540T487 598T405 621Q355 621 310 597T232 525T179 407T159 245ZM415 687Q383 714 349 736T276 774Q279 778 283 784T291 796T301 806T309 810Q316 810 335 797T375 767T413 734T437 709L415 687Z"  />
<glyph unicode="&#xD3;" horiz-adv-x="722" d="M305 -22Q179 -22 110 48T41 243Q41 324 69 399T147 531T267 622T422 657Q548 657 617 587T686 392Q686 311 658 236T580 104T460 13T305 -22ZM159 245Q159 210 166 170T191 95T240 37T322 14Q372 14 417 38T495 110T548 228T568 390Q568 425 561 465T536 540T487 598T405 621Q355 621 310 597T232 525T179 407T159 245ZM375 709Q381 717 398 733T437 767T476 797T503 810Q506 810 511 806T520 796T529 784T536 774Q498 758 464 736T397 687L375 709Z"  />
<glyph unicode="&#xD4;" horiz-adv-x="722" d="M305 -22Q179 -22 110 48T41 243Q41 324 69 399T147 531T267 622T422 657Q548 657 617 587T686 392Q686 311 658 236T580 104T460 13T305 -22ZM159 245Q159 210 166 170T191 95T240 37T322 14Q372 14 417 38T495 110T548 228T568 390Q568 425 561 465T536 540T487 598T405 621Q355 621 310 597T232 525T179 407T159 245ZM436 803Q456 770 486 744T553 706Q545 699 538 693T520 687Q497 687 470 701T427 732Q417 724 403 716T372 702T339 691T311 687Q298 687 291 696T276 714Q321 724 363 746T436 803Z"  />
<glyph unicode="&#xD5;" horiz-adv-x="722" d="M305 -22Q179 -22 110 48T41 243Q41 324 69 399T147 531T267 622T422 657Q548 657 617 587T686 392Q686 311 658 236T580 104T460 13T305 -22ZM159 245Q159 210 166 170T191 95T240 37T322 14Q372 14 417 38T495 110T548 228T568 390Q568 425 561 465T536 540T487 598T405 621Q355 621 310 597T232 525T179 407T159 245ZM296 712Q303 738 319 760T365 783Q378 783 392 779T420 769Q435 763 449 759T476 754Q493 754 502 762T518 786L543 780Q535 749 514 727T459 705Q444 705 430 709T401 719Q387 724 376 728T354 733Q340 733 333 725T320 705L296 712Z"  />
<glyph unicode="&#xD6;" horiz-adv-x="722" d="M305 -22Q179 -22 110 48T41 243Q41 324 69 399T147 531T267 622T422 657Q548 657 617 587T686 392Q686 311 658 236T580 104T460 13T305 -22ZM159 245Q159 210 166 170T191 95T240 37T322 14Q372 14 417 38T495 110T548 228T568 390Q568 425 561 465T536 540T487 598T405 621Q355 621 310 597T232 525T179 407T159 245ZM469 707Q452 707 442 718T432 746Q432 766 447 780T482 795Q499 795 509 785T520 758Q520 736 506 722T469 707ZM347 707Q330 707 320 718T310 746Q310 766 325 780T360 795Q377 795 387 785T398 758Q398 736 384 722T347 707Z"  />
<glyph unicode="&#xD7;" horiz-adv-x="519" d="M425 79L259 245L93 78L60 111L226 278L60 444L94 477L260 312L425 477L458 444L293 278L459 113L425 79Z"  />
<glyph unicode="&#xD8;" horiz-adv-x="722" d="M153 -77H112L164 11Q104 41 73 100T41 243Q41 324 69 399T147 531T267 622T422 657Q484 657 534 639L577 712H618L566 624Q624 592 655 534T686 392Q686 311 658 236T580 104T460 13T305 -22Q244 -22 196 -4L153 -77ZM503 586Q486 602 462 611T405 621Q355 621 310 597T232 525T179 407T159 245Q159 205 168 159T202 76L503 586ZM227 48Q245 32 268 23T322 14Q372 14 417 38T495 110T548 228T568 390Q568 430 559 475T527 557L227 48Z"  />
<glyph unicode="&#xD9;" horiz-adv-x="704" d="M731 635L726 602H686Q680 602 669 601T657 593L618 346Q613 316 606 277T584 197T548 117T493 47T412 -3T302 -22Q262 -22 224 -13T157 18T109 72T91 152Q91 164 93 186T98 237T106 298T115 364Q119 398 123 430T131 491T137 539T139 570Q139 593 134 597T111 602H56L61 635H326L321 602H278Q263 602 260 598T254 575Q251 551 246 515T236 439T224 356T213 276T205 208T202 163Q202 98 234 60T333 22Q403 22 447 56T519 142T559 255T578 371L599 549Q600 555 600 563T601 578Q601 595 594 598T568 602H521L526 635H731ZM426 687Q394 714 360 736T287 774Q290 778 294 784T302 796T312 806T320 810Q327 810 346 797T386 767T424 734T448 709L426 687Z"  />
<glyph unicode="&#xDA;" horiz-adv-x="704" d="M731 635L726 602H686Q680 602 669 601T657 593L618 346Q613 316 606 277T584 197T548 117T493 47T412 -3T302 -22Q262 -22 224 -13T157 18T109 72T91 152Q91 164 93 186T98 237T106 298T115 364Q119 398 123 430T131 491T137 539T139 570Q139 593 134 597T111 602H56L61 635H326L321 602H278Q263 602 260 598T254 575Q251 551 246 515T236 439T224 356T213 276T205 208T202 163Q202 98 234 60T333 22Q403 22 447 56T519 142T559 255T578 371L599 549Q600 555 600 563T601 578Q601 595 594 598T568 602H521L526 635H731ZM396 709Q402 717 419 733T458 767T497 797T524 810Q527 810 532 806T541 796T550 784T557 774Q519 758 485 736T418 687L396 709Z"  />
<glyph unicode="&#xDB;" horiz-adv-x="704" d="M731 635L726 602H686Q680 602 669 601T657 593L618 346Q613 316 606 277T584 197T548 117T493 47T412 -3T302 -22Q262 -22 224 -13T157 18T109 72T91 152Q91 164 93 186T98 237T106 298T115 364Q119 398 123 430T131 491T137 539T139 570Q139 593 134 597T111 602H56L61 635H326L321 602H278Q263 602 260 598T254 575Q251 551 246 515T236 439T224 356T213 276T205 208T202 163Q202 98 234 60T333 22Q403 22 447 56T519 142T559 255T578 371L599 549Q600 555 600 563T601 578Q601 595 594 598T568 602H521L526 635H731ZM442 803Q462 770 492 744T559 706Q551 699 544 693T526 687Q503 687 476 701T433 732Q423 724 409 716T378 702T345 691T317 687Q304 687 297 696T282 714Q327 724 369 746T442 803Z"  />
<glyph unicode="&#xDC;" horiz-adv-x="704" d="M731 635L726 602H686Q680 602 669 601T657 593L618 346Q613 316 606 277T584 197T548 117T493 47T412 -3T302 -22Q262 -22 224 -13T157 18T109 72T91 152Q91 164 93 186T98 237T106 298T115 364Q119 398 123 430T131 491T137 539T139 570Q139 593 134 597T111 602H56L61 635H326L321 602H278Q263 602 260 598T254 575Q251 551 246 515T236 439T224 356T213 276T205 208T202 163Q202 98 234 60T333 22Q403 22 447 56T519 142T559 255T578 371L599 549Q600 555 600 563T601 578Q601 595 594 598T568 602H521L526 635H731ZM480 707Q463 707 453 718T443 746Q443 766 458 780T493 795Q510 795 520 785T531 758Q531 736 517 722T480 707ZM358 707Q341 707 331 718T321 746Q321 766 336 780T371 795Q388 795 398 785T409 758Q409 736 395 722T358 707Z"  />
<glyph unicode="&#xDD;" horiz-adv-x="574" d="M279 602H234Q226 602 221 601T216 595Q216 592 220 582T231 558T245 531T257 505L330 339Q343 354 360 376T396 424T432 477T464 527T487 568T496 593Q496 600 491 601T479 602H422L427 635H614L609 603H576Q566 603 563 601T554 591Q504 519 448 443T337 290L315 74Q314 68 314 64T314 55Q314 41 321 37T340 33H397L392 0H112L117 33H155Q168 33 176 33T188 34T193 39T195 47L230 301L128 529Q107 575 96 588T77 602H31L36 635H284L279 602ZM321 709Q327 717 344 733T383 767T422 797T449 810Q452 810 457 806T466 796T475 784T482 774Q444 758 410 736T343 687L321 709Z"  />
<glyph unicode="&#xDE;" horiz-adv-x="537" d="M315 602H271Q263 602 259 601T253 592T248 569T242 525H349Q391 525 423 513T477 480T510 432T522 377Q522 322 497 282T431 216T341 177T244 164Q236 164 222 165T194 169Q193 156 191 140T187 109T184 81T182 64Q182 44 188 39T208 33H264L259 0H0L5 33H31Q56 33 63 34T70 47Q70 50 75 86T87 176T103 293T119 413T132 513T137 570Q137 593 132 597T109 602H59L64 635H320L315 602ZM198 202Q218 197 235 197Q271 197 302 209T358 243T396 295T410 361Q410 387 403 410T381 450T340 478T278 488Q252 488 245 486T236 474L198 202Z"  />
<glyph unicode="&#xDF;" horiz-adv-x="556" d="M546 496Q520 494 488 488T428 467T380 431T361 375Q361 350 373 329T405 287T445 248T486 208T517 164T530 114Q530 81 515 57T475 15T421 -10T363 -19Q348 -19 326 -16T283 -4T247 18T232 52Q232 64 241 70T262 77Q286 77 304 59T328 17Q336 13 345 12T364 11Q394 11 418 30T443 82Q443 102 431 121T399 160T357 200T316 242T284 287T271 337Q271 370 286 396T324 443T376 476T433 499Q445 530 445 565Q445 588 440 609T422 647T392 672T347 682Q288 682 254 646T206 555Q199 529 194 487T182 381T169 233T149 39Q141 -31 122 -79T78 -160T26 -210T-26 -236T-66 -247T-87 -249Q-99 -249 -111 -247T-134 -240T-151 -226T-158 -204Q-158 -190 -147 -182T-122 -174Q-102 -174 -87 -186T-60 -214Q-57 -214 -45 -211T-16 -189T17 -131T42 -20Q43 -10 46 15T53 75T61 151T70 236T79 320T87 396H17L22 426H90Q96 485 114 537T164 628T244 689T357 712Q395 712 429 701T488 668T524 610T529 525L551 528L546 496Z"  />
<glyph unicode="&#xE0;" horiz-adv-x="500" d="M28 122Q28 181 50 237T112 338T205 410T320 438Q350 438 373 435T420 426Q420 452 424 457T441 462H462Q446 395 436 336T420 227T412 140T409 81Q409 64 411 54T423 43Q428 43 437 46T455 55T474 66T488 74L500 53Q439 13 390 -3T325 -19Q313 -19 311 -4T308 38Q308 59 312 91T319 152L317 154Q305 128 286 98T242 42T188 -1T126 -19Q99 -19 80 -6T50 29T33 74T28 122ZM133 141Q133 130 135 115T142 85T156 61T181 51Q203 51 229 71T280 133T323 243T350 403Q335 408 322 408Q274 408 239 382T180 315T145 228T133 141ZM334 497Q302 524 268 546T195 584Q198 588 202 594T210 606T220 616T228 620Q235 620 254 607T294 577T332 544T356 519L334 497Z"  />
<glyph unicode="&#xE1;" horiz-adv-x="500" d="M28 122Q28 181 50 237T112 338T205 410T320 438Q350 438 373 435T420 426Q420 452 424 457T441 462H462Q446 395 436 336T420 227T412 140T409 81Q409 64 411 54T423 43Q428 43 437 46T455 55T474 66T488 74L500 53Q439 13 390 -3T325 -19Q313 -19 311 -4T308 38Q308 59 312 91T319 152L317 154Q305 128 286 98T242 42T188 -1T126 -19Q99 -19 80 -6T50 29T33 74T28 122ZM133 141Q133 130 135 115T142 85T156 61T181 51Q203 51 229 71T280 133T323 243T350 403Q335 408 322 408Q274 408 239 382T180 315T145 228T133 141ZM269 519Q275 527 292 543T331 577T370 607T397 620Q400 620 405 616T414 606T423 594T430 584Q392 568 358 546T291 497L269 519Z"  />
<glyph unicode="&#xE2;" horiz-adv-x="500" d="M28 122Q28 181 50 237T112 338T205 410T320 438Q350 438 373 435T420 426Q420 452 424 457T441 462H462Q446 395 436 336T420 227T412 140T409 81Q409 64 411 54T423 43Q428 43 437 46T455 55T474 66T488 74L500 53Q439 13 390 -3T325 -19Q313 -19 311 -4T308 38Q308 59 312 91T319 152L317 154Q305 128 286 98T242 42T188 -1T126 -19Q99 -19 80 -6T50 29T33 74T28 122ZM133 141Q133 130 135 115T142 85T156 61T181 51Q203 51 229 71T280 133T323 243T350 403Q335 408 322 408Q274 408 239 382T180 315T145 228T133 141ZM350 631Q370 598 400 572T467 534Q459 527 452 521T434 515Q411 515 384 529T341 560Q331 552 317 544T286 530T253 519T225 515Q212 515 205 524T190 542Q235 552 277 574T350 631Z"  />
<glyph unicode="&#xE3;" horiz-adv-x="500" d="M28 122Q28 181 50 237T112 338T205 410T320 438Q350 438 373 435T420 426Q420 452 424 457T441 462H462Q446 395 436 336T420 227T412 140T409 81Q409 64 411 54T423 43Q428 43 437 46T455 55T474 66T488 74L500 53Q439 13 390 -3T325 -19Q313 -19 311 -4T308 38Q308 59 312 91T319 152L317 154Q305 128 286 98T242 42T188 -1T126 -19Q99 -19 80 -6T50 29T33 74T28 122ZM133 141Q133 130 135 115T142 85T156 61T181 51Q203 51 229 71T280 133T323 243T350 403Q335 408 322 408Q274 408 239 382T180 315T145 228T133 141ZM195 522Q202 548 218 570T264 593Q277 593 291 589T319 579Q334 573 348 569T375 564Q392 564 401 572T417 596L442 590Q434 559 413 537T358 515Q343 515 329 519T300 529Q286 534 275 538T253 543Q239 543 232 535T219 515L195 522Z"  />
<glyph unicode="&#xE4;" horiz-adv-x="500" d="M28 122Q28 181 50 237T112 338T205 410T320 438Q350 438 373 435T420 426Q420 452 424 457T441 462H462Q446 395 436 336T420 227T412 140T409 81Q409 64 411 54T423 43Q428 43 437 46T455 55T474 66T488 74L500 53Q439 13 390 -3T325 -19Q313 -19 311 -4T308 38Q308 59 312 91T319 152L317 154Q305 128 286 98T242 42T188 -1T126 -19Q99 -19 80 -6T50 29T33 74T28 122ZM133 141Q133 130 135 115T142 85T156 61T181 51Q203 51 229 71T280 133T323 243T350 403Q335 408 322 408Q274 408 239 382T180 315T145 228T133 141ZM378 517Q361 517 351 528T341 556Q341 576 356 590T391 605Q408 605 418 595T429 568Q429 546 415 532T378 517ZM256 517Q239 517 229 528T219 556Q219 576 234 590T269 605Q286 605 296 595T307 568Q307 546 293 532T256 517Z"  />
<glyph unicode="&#xE5;" horiz-adv-x="500" d="M28 122Q28 181 50 237T112 338T205 410T320 438Q350 438 373 435T420 426Q420 452 424 457T441 462H462Q446 395 436 336T420 227T412 140T409 81Q409 64 411 54T423 43Q428 43 437 46T455 55T474 66T488 74L500 53Q439 13 390 -3T325 -19Q313 -19 311 -4T308 38Q308 59 312 91T319 152L317 154Q305 128 286 98T242 42T188 -1T126 -19Q99 -19 80 -6T50 29T33 74T28 122ZM133 141Q133 130 135 115T142 85T156 61T181 51Q203 51 229 71T280 133T323 243T350 403Q335 408 322 408Q274 408 239 382T180 315T145 228T133 141ZM311 481Q276 481 251 505T226 564Q226 583 233 599T254 628T284 648T319 655Q354 655 379 631T404 571Q404 552 397 536T376 507T346 488T311 481ZM313 518Q334 518 350 533T367 569Q367 590 353 604T318 618Q296 618 280 603T263 566Q263 546 278 532T313 518Z"  />
<glyph unicode="&#xE6;" horiz-adv-x="704" d="M576 310Q582 335 582 362Q582 381 575 396T545 412Q516 412 493 389T453 333T429 264T420 202L576 310ZM663 79Q624 34 570 8T455 -19Q382 -19 347 20T312 129V136L310 138Q298 115 280 88T238 37T187 -3T128 -19Q101 -19 83 -6T54 29T38 74T33 122Q33 181 55 237T117 338T210 410T325 438Q355 438 378 435T425 426Q425 451 428 456T446 462H464Q463 459 461 450T456 430T451 409T447 395L449 393Q475 416 512 430T585 445Q620 445 640 433T660 385V367Q673 375 679 380T688 389T692 393T696 394Q701 394 701 388Q701 382 700 377T698 365Q635 311 565 265T420 167V161Q420 138 423 115T437 71T464 39T510 26Q529 26 548 33T585 51T619 75T649 100L663 79ZM355 403Q340 408 327 408Q279 408 244 382T185 315T150 228T138 141Q138 130 140 115T147 85T161 61T186 51Q208 51 234 71T285 133T328 243T355 403Z"  />
<glyph unicode="&#xE7;" horiz-adv-x="407" d="M375 67Q346 34 306 14T222 -15Q214 -26 208 -34T202 -48Q202 -54 215 -59T245 -71T274 -89T288 -118Q288 -134 280 -145T258 -163T230 -173T202 -176Q195 -176 183 -174T158 -168T136 -157T127 -139Q127 -131 133 -127T146 -123Q160 -123 170 -132T187 -154H204Q216 -154 231 -149T247 -126Q247 -115 233 -107T202 -91T170 -78T156 -63Q156 -59 166 -45T186 -19H173Q98 -19 64 24T29 139Q29 208 55 264T121 361T209 423T304 445Q314 445 329 443T358 436T382 421T392 398Q392 381 379 373T350 365Q326 365 307 379T278 415Q240 406 214 378T171 312T146 233T138 158Q138 137 141 114T154 71T180 39T224 26Q260 26 297 45T359 89L375 67Z"  />
<glyph unicode="&#xE8;" horiz-adv-x="444" d="M394 79Q355 34 301 8T186 -19Q147 -19 120 -7T75 28T50 81T42 147Q42 204 62 257T118 352T204 419T314 445Q347 445 369 434T391 385V367Q404 375 410 380T419 389T423 393T427 394Q432 394 432 388Q432 382 431 377T429 365Q366 311 296 265T151 167Q151 143 154 118T167 73T194 39T241 26Q260 26 279 33T316 51T350 75T380 100L394 79ZM307 310Q313 335 313 362Q313 381 306 396T276 412Q246 412 223 389T184 332T160 263T151 202L307 310ZM276 497Q244 524 210 546T137 584Q140 588 144 594T152 606T162 616T170 620Q177 620 196 607T236 577T274 544T298 519L276 497Z"  />
<glyph unicode="&#xE9;" horiz-adv-x="444" d="M394 79Q355 34 301 8T186 -19Q147 -19 120 -7T75 28T50 81T42 147Q42 204 62 257T118 352T204 419T314 445Q347 445 369 434T391 385V367Q404 375 410 380T419 389T423 393T427 394Q432 394 432 388Q432 382 431 377T429 365Q366 311 296 265T151 167Q151 143 154 118T167 73T194 39T241 26Q260 26 279 33T316 51T350 75T380 100L394 79ZM307 310Q313 335 313 362Q313 381 306 396T276 412Q246 412 223 389T184 332T160 263T151 202L307 310ZM236 519Q242 527 259 543T298 577T337 607T364 620Q367 620 372 616T381 606T390 594T397 584Q359 568 325 546T258 497L236 519Z"  />
<glyph unicode="&#xEA;" horiz-adv-x="444" d="M394 79Q355 34 301 8T186 -19Q147 -19 120 -7T75 28T50 81T42 147Q42 204 62 257T118 352T204 419T314 445Q347 445 369 434T391 385V367Q404 375 410 380T419 389T423 393T427 394Q432 394 432 388Q432 382 431 377T429 365Q366 311 296 265T151 167Q151 143 154 118T167 73T194 39T241 26Q260 26 279 33T316 51T350 75T380 100L394 79ZM307 310Q313 335 313 362Q313 381 306 396T276 412Q246 412 223 389T184 332T160 263T151 202L307 310ZM297 613Q317 580 347 554T414 516Q406 509 399 503T381 497Q358 497 331 511T288 542Q278 534 264 526T233 512T200 501T172 497Q159 497 152 506T137 524Q182 534 224 556T297 613Z"  />
<glyph unicode="&#xEB;" horiz-adv-x="444" d="M394 79Q355 34 301 8T186 -19Q147 -19 120 -7T75 28T50 81T42 147Q42 204 62 257T118 352T204 419T314 445Q347 445 369 434T391 385V367Q404 375 410 380T419 389T423 393T427 394Q432 394 432 388Q432 382 431 377T429 365Q366 311 296 265T151 167Q151 143 154 118T167 73T194 39T241 26Q260 26 279 33T316 51T350 75T380 100L394 79ZM307 310Q313 335 313 362Q313 381 306 396T276 412Q246 412 223 389T184 332T160 263T151 202L307 310ZM330 517Q313 517 303 528T293 556Q293 576 308 590T343 605Q360 605 370 595T381 568Q381 546 367 532T330 517ZM208 517Q191 517 181 528T171 556Q171 576 186 590T221 605Q238 605 248 595T259 568Q259 546 245 532T208 517Z"  />
<glyph unicode="&#xEC;" horiz-adv-x="278" d="M261 43Q246 31 223 20T176 0T128 -14T92 -19Q84 -19 80 -13T74 2T72 19T71 33Q71 53 74 83T81 148T90 218T100 282T107 332T110 358Q110 372 109 382T96 392Q84 392 65 384T34 370L26 394Q46 406 72 415T122 431T167 441T197 445Q205 445 208 442T212 425Q212 389 206 340T193 239T179 142T173 68Q173 65 173 60T174 50T178 41T185 37Q190 37 199 40T218 49T238 58T253 66L261 43ZM184 497Q152 524 118 546T45 584Q48 588 52 594T60 606T70 616T78 620Q85 620 104 607T144 577T182 544T206 519L184 497Z"  />
<glyph unicode="&#xED;" horiz-adv-x="278" d="M261 43Q246 31 223 20T176 0T128 -14T92 -19Q84 -19 80 -13T74 2T72 19T71 33Q71 53 74 83T81 148T90 218T100 282T107 332T110 358Q110 372 109 382T96 392Q84 392 65 384T34 370L26 394Q46 406 72 415T122 431T167 441T197 445Q205 445 208 442T212 425Q212 389 206 340T193 239T179 142T173 68Q173 65 173 60T174 50T178 41T185 37Q190 37 199 40T218 49T238 58T253 66L261 43ZM123 519Q129 527 146 543T185 577T224 607T251 620Q254 620 259 616T268 606T277 594T284 584Q246 568 212 546T145 497L123 519Z"  />
<glyph unicode="&#xEE;" horiz-adv-x="278" d="M261 43Q246 31 223 20T176 0T128 -14T92 -19Q84 -19 80 -13T74 2T72 19T71 33Q71 53 74 83T81 148T90 218T100 282T107 332T110 358Q110 372 109 382T96 392Q84 392 65 384T34 370L26 394Q46 406 72 415T122 431T167 441T197 445Q205 445 208 442T212 425Q212 389 206 340T193 239T179 142T173 68Q173 65 173 60T174 50T178 41T185 37Q190 37 199 40T218 49T238 58T253 66L261 43ZM175 613Q195 580 225 554T292 516Q284 509 277 503T259 497Q236 497 209 511T166 542Q156 534 142 526T111 512T78 501T50 497Q37 497 30 506T15 524Q60 534 102 556T175 613Z"  />
<glyph unicode="&#xEF;" horiz-adv-x="278" d="M261 43Q246 31 223 20T176 0T128 -14T92 -19Q84 -19 80 -13T74 2T72 19T71 33Q71 53 74 83T81 148T90 218T100 282T107 332T110 358Q110 372 109 382T96 392Q84 392 65 384T34 370L26 394Q46 406 72 415T122 431T167 441T197 445Q205 445 208 442T212 425Q212 389 206 340T193 239T179 142T173 68Q173 65 173 60T174 50T178 41T185 37Q190 37 199 40T218 49T238 58T253 66L261 43ZM208 517Q191 517 181 528T171 556Q171 576 186 590T221 605Q238 605 248 595T259 568Q259 546 245 532T208 517ZM86 517Q69 517 59 528T49 556Q49 576 64 590T99 605Q116 605 126 595T137 568Q137 546 123 532T86 517Z"  />
<glyph unicode="&#xF0;" horiz-adv-x="481" d="M215 13Q253 13 278 41T318 108T339 189T345 260Q345 279 343 305T334 354T311 394T269 411Q231 411 206 383T166 316T145 235T139 164Q139 145 141 119T150 70T173 30T215 13ZM262 598Q247 618 228 639T183 682L235 712Q276 682 321 634L447 712L474 687L343 607Q364 578 383 543T417 469T441 384T450 290Q450 239 434 185T384 85T301 11T184 -19Q157 -19 131 -12T83 13T48 61T34 136Q34 187 50 241T100 341T183 415T300 445Q308 445 316 443T329 438Q327 463 317 497T281 570L163 497L136 521L262 598Z"  />
<glyph unicode="&#xF1;" horiz-adv-x="519" d="M20 394Q40 406 66 415T116 431T161 441T191 445Q199 445 202 442T206 425Q206 396 200 357T189 255L191 253Q204 283 223 316T266 378T319 426T382 445Q401 445 414 437T434 415T445 385T448 352Q448 341 446 318T441 265T434 205T427 146T421 99T419 74Q419 71 419 66T420 56T424 47T431 43Q436 43 445 46T464 55T484 64T499 72L507 49Q492 37 469 26T422 6T374 -8T338 -13Q330 -13 326 -7T320 8T318 25T317 39Q317 64 322 103T334 186T346 270T352 340Q352 353 347 364T325 375Q310 375 296 366T271 343T250 314T235 289Q216 255 204 226T184 165T170 94T155 0H58Q64 45 72 100T87 206T99 299T104 358Q104 372 103 382T90 392Q78 392 59 384T28 370L20 394ZM165 522Q172 548 188 570T234 593Q247 593 261 589T289 579Q304 573 318 569T345 564Q362 564 371 572T387 596L412 590Q404 559 383 537T328 515Q313 515 299 519T270 529Q256 534 245 538T223 543Q209 543 202 535T189 515L165 522Z"  />
<glyph unicode="&#xF2;" horiz-adv-x="481" d="M184 -19Q157 -19 131 -12T83 13T48 61T34 136Q34 187 50 241T100 341T183 415T300 445Q327 445 354 438T402 413T436 365T450 290Q450 239 434 185T384 85T301 11T184 -19ZM215 14Q253 14 278 42T318 109T339 190T345 261Q345 280 343 306T334 355T311 395T269 412Q231 412 206 384T166 317T145 236T139 165Q139 146 141 120T150 71T173 31T215 14ZM290 497Q258 524 224 546T151 584Q154 588 158 594T166 606T176 616T184 620Q191 620 210 607T250 577T288 544T312 519L290 497Z"  />
<glyph unicode="&#xF3;" horiz-adv-x="481" d="M184 -19Q157 -19 131 -12T83 13T48 61T34 136Q34 187 50 241T100 341T183 415T300 445Q327 445 354 438T402 413T436 365T450 290Q450 239 434 185T384 85T301 11T184 -19ZM215 14Q253 14 278 42T318 109T339 190T345 261Q345 280 343 306T334 355T311 395T269 412Q231 412 206 384T166 317T145 236T139 165Q139 146 141 120T150 71T173 31T215 14ZM250 519Q256 527 273 543T312 577T351 607T378 620Q381 620 386 616T395 606T404 594T411 584Q373 568 339 546T272 497L250 519Z"  />
<glyph unicode="&#xF4;" horiz-adv-x="481" d="M184 -19Q157 -19 131 -12T83 13T48 61T34 136Q34 187 50 241T100 341T183 415T300 445Q327 445 354 438T402 413T436 365T450 290Q450 239 434 185T384 85T301 11T184 -19ZM215 14Q253 14 278 42T318 109T339 190T345 261Q345 280 343 306T334 355T311 395T269 412Q231 412 206 384T166 317T145 236T139 165Q139 146 141 120T150 71T173 31T215 14ZM306 613Q326 580 356 554T423 516Q415 509 408 503T390 497Q367 497 340 511T297 542Q287 534 273 526T242 512T209 501T181 497Q168 497 161 506T146 524Q191 534 233 556T306 613Z"  />
<glyph unicode="&#xF5;" horiz-adv-x="481" d="M184 -19Q157 -19 131 -12T83 13T48 61T34 136Q34 187 50 241T100 341T183 415T300 445Q327 445 354 438T402 413T436 365T450 290Q450 239 434 185T384 85T301 11T184 -19ZM215 14Q253 14 278 42T318 109T339 190T345 261Q345 280 343 306T334 355T311 395T269 412Q231 412 206 384T166 317T145 236T139 165Q139 146 141 120T150 71T173 31T215 14ZM156 522Q163 548 179 570T225 593Q238 593 252 589T280 579Q295 573 309 569T336 564Q353 564 362 572T378 596L403 590Q395 559 374 537T319 515Q304 515 290 519T261 529Q247 534 236 538T214 543Q200 543 193 535T180 515L156 522Z"  />
<glyph unicode="&#xF6;" horiz-adv-x="481" d="M184 -19Q157 -19 131 -12T83 13T48 61T34 136Q34 187 50 241T100 341T183 415T300 445Q327 445 354 438T402 413T436 365T450 290Q450 239 434 185T384 85T301 11T184 -19ZM215 14Q253 14 278 42T318 109T339 190T345 261Q345 280 343 306T334 355T311 395T269 412Q231 412 206 384T166 317T145 236T139 165Q139 146 141 120T150 71T173 31T215 14ZM339 517Q322 517 312 528T302 556Q302 576 317 590T352 605Q369 605 379 595T390 568Q390 546 376 532T339 517ZM217 517Q200 517 190 528T180 556Q180 576 195 590T230 605Q247 605 257 595T268 568Q268 546 254 532T217 517Z"  />
<glyph unicode="&#xF7;" horiz-adv-x="519" d="M305 435Q305 416 292 403T259 389Q240 389 227 402T214 435Q214 454 227 467T259 480Q278 480 291 467T305 435ZM55 255V302H463V255H55ZM305 122Q305 102 292 89T259 76Q240 76 227 89T214 122Q214 141 227 154T259 167Q278 167 291 154T305 122Z"  />
<glyph unicode="&#xF8;" horiz-adv-x="481" d="M160 50Q168 34 181 24T215 14Q253 14 278 42T318 109T339 190T345 261Q345 277 344 297T337 337L160 50ZM325 373Q317 390 304 401T269 412Q231 412 206 384T166 317T145 236T139 165Q139 149 140 128T147 84L325 373ZM432 490L390 422Q450 387 450 290Q450 234 431 179T378 80T294 9T184 -19Q149 -19 124 -10L91 -64H57L97 2Q65 19 50 53T34 136Q34 192 53 247T106 346T190 417T300 445Q337 445 364 435L398 490H432Z"  />
<glyph unicode="&#xF9;" horiz-adv-x="519" d="M458 426Q438 300 431 222T424 111Q424 107 424 96T425 72T430 51T438 42Q446 42 460 48T498 65L507 43Q483 29 458 18T409 -1T369 -14T346 -19Q336 -19 333 -9T329 10Q329 37 330 55T331 92T333 130T334 180L332 182Q323 155 305 120T262 54T207 2T144 -19Q125 -19 113 -11T93 9T82 38T79 71Q79 99 83 145T94 236T104 316T109 358Q109 372 108 382T95 392Q87 392 74 387T39 372L30 394Q50 406 76 415T126 431T171 441T201 445Q209 445 212 443T216 429Q216 414 213 388T206 330T196 265T186 200T178 144T175 105Q175 91 179 76T203 60Q216 60 228 68T250 88T269 113T283 135Q307 174 320 207T340 275T353 345T366 426H458ZM304 497Q272 524 238 546T165 584Q168 588 172 594T180 606T190 616T198 620Q205 620 224 607T264 577T302 544T326 519L304 497Z"  />
<glyph unicode="&#xFA;" horiz-adv-x="519" d="M458 426Q438 300 431 222T424 111Q424 107 424 96T425 72T430 51T438 42Q446 42 460 48T498 65L507 43Q483 29 458 18T409 -1T369 -14T346 -19Q336 -19 333 -9T329 10Q329 37 330 55T331 92T333 130T334 180L332 182Q323 155 305 120T262 54T207 2T144 -19Q125 -19 113 -11T93 9T82 38T79 71Q79 99 83 145T94 236T104 316T109 358Q109 372 108 382T95 392Q87 392 74 387T39 372L30 394Q50 406 76 415T126 431T171 441T201 445Q209 445 212 443T216 429Q216 414 213 388T206 330T196 265T186 200T178 144T175 105Q175 91 179 76T203 60Q216 60 228 68T250 88T269 113T283 135Q307 174 320 207T340 275T353 345T366 426H458ZM264 519Q270 527 287 543T326 577T365 607T392 620Q395 620 400 616T409 606T418 594T425 584Q387 568 353 546T286 497L264 519Z"  />
<glyph unicode="&#xFB;" horiz-adv-x="519" d="M458 426Q438 300 431 222T424 111Q424 107 424 96T425 72T430 51T438 42Q446 42 460 48T498 65L507 43Q483 29 458 18T409 -1T369 -14T346 -19Q336 -19 333 -9T329 10Q329 37 330 55T331 92T333 130T334 180L332 182Q323 155 305 120T262 54T207 2T144 -19Q125 -19 113 -11T93 9T82 38T79 71Q79 99 83 145T94 236T104 316T109 358Q109 372 108 382T95 392Q87 392 74 387T39 372L30 394Q50 406 76 415T126 431T171 441T201 445Q209 445 212 443T216 429Q216 414 213 388T206 330T196 265T186 200T178 144T175 105Q175 91 179 76T203 60Q216 60 228 68T250 88T269 113T283 135Q307 174 320 207T340 275T353 345T366 426H458ZM305 613Q325 580 355 554T422 516Q414 509 407 503T389 497Q366 497 339 511T296 542Q286 534 272 526T241 512T208 501T180 497Q167 497 160 506T145 524Q190 534 232 556T305 613Z"  />
<glyph unicode="&#xFC;" horiz-adv-x="519" d="M458 426Q438 300 431 222T424 111Q424 107 424 96T425 72T430 51T438 42Q446 42 460 48T498 65L507 43Q483 29 458 18T409 -1T369 -14T346 -19Q336 -19 333 -9T329 10Q329 37 330 55T331 92T333 130T334 180L332 182Q323 155 305 120T262 54T207 2T144 -19Q125 -19 113 -11T93 9T82 38T79 71Q79 99 83 145T94 236T104 316T109 358Q109 372 108 382T95 392Q87 392 74 387T39 372L30 394Q50 406 76 415T126 431T171 441T201 445Q209 445 212 443T216 429Q216 414 213 388T206 330T196 265T186 200T178 144T175 105Q175 91 179 76T203 60Q216 60 228 68T250 88T269 113T283 135Q307 174 320 207T340 275T353 345T366 426H458ZM348 517Q331 517 321 528T311 556Q311 576 326 590T361 605Q378 605 388 595T399 568Q399 546 385 532T348 517ZM226 517Q209 517 199 528T189 556Q189 576 204 590T239 605Q256 605 266 595T277 568Q277 546 263 532T226 517Z"  />
<glyph unicode="&#xFD;" horiz-adv-x="481" d="M19 373Q46 391 71 404T118 427T154 440T173 445Q179 445 193 417T225 341T261 227T294 87Q308 111 326 151T361 233T389 314T401 375Q401 389 395 393T381 399T367 402T361 413Q361 423 368 424T384 426H463Q458 384 436 321T380 188T305 46T222 -83Q204 -107 180 -134T128 -183T69 -220T4 -235Q-5 -235 -15 -233T-34 -227T-48 -215T-54 -196Q-54 -177 -40 -169T-8 -160Q11 -160 25 -167T52 -189Q77 -182 101 -163T146 -120T184 -69T213 -20V-11Q213 6 206 41T188 120T162 208T133 291T105 352T83 376Q75 376 58 366T32 349L19 373ZM260 519Q266 527 283 543T322 577T361 607T388 620Q391 620 396 616T405 606T414 594T421 584Q383 568 349 546T282 497L260 519Z"  />
<glyph unicode="&#xFE;" horiz-adv-x="500" d="M130 632Q130 639 129 647T118 655Q107 655 91 649T55 637L47 662Q69 672 96 680T148 693T194 702T224 705Q234 705 236 701T239 685Q239 648 228 541T188 255L190 253Q203 283 222 316T265 378T318 426T381 445Q410 445 429 432T459 398T474 352T479 303Q479 243 458 186T398 83T306 11T188 -17Q181 -17 170 -17T152 -15L137 -149Q135 -162 134 -176T133 -200Q133 -221 139 -224T159 -228H232L227 -258H-23L-18 -228Q11 -228 18 -226T27 -207L130 632ZM157 17Q165 15 171 14T182 13Q236 13 273 42T332 111T364 196T374 272Q374 285 373 303T366 337T352 364T327 375Q307 375 288 360T253 322T225 276T205 236Q185 187 175 133T157 17Z"  />
<glyph unicode="&#xFF;" horiz-adv-x="481" d="M19 373Q46 391 71 404T118 427T154 440T173 445Q179 445 193 417T225 341T261 227T294 87Q308 111 326 151T361 233T389 314T401 375Q401 389 395 393T381 399T367 402T361 413Q361 423 368 424T384 426H463Q458 384 436 321T380 188T305 46T222 -83Q204 -107 180 -134T128 -183T69 -220T4 -235Q-5 -235 -15 -233T-34 -227T-48 -215T-54 -196Q-54 -177 -40 -169T-8 -160Q11 -160 25 -167T52 -189Q77 -182 101 -163T146 -120T184 -69T213 -20V-11Q213 6 206 41T188 120T162 208T133 291T105 352T83 376Q75 376 58 366T32 349L19 373ZM339 517Q322 517 312 528T302 556Q302 576 317 590T352 605Q369 605 379 595T390 568Q390 546 376 532T339 517ZM217 517Q200 517 190 528T180 556Q180 576 195 590T230 605Q247 605 257 595T268 568Q268 546 254 532T217 517Z"  />
<glyph unicode="&#x131;" horiz-adv-x="278" d="M261 43Q246 31 223 20T176 0T128 -14T92 -19Q84 -19 80 -13T74 2T72 19T71 33Q71 53 74 83T81 148T90 218T100 282T107 332T110 358Q110 372 109 382T96 392Q84 392 65 384T34 370L26 394Q46 406 72 415T122 431T167 441T197 445Q205 445 208 442T212 425Q212 389 206 340T193 239T179 142T173 68Q173 65 173 60T174 50T178 41T185 37Q190 37 199 40T218 49T238 58T253 66L261 43Z"  />
<glyph unicode="&#x152;" horiz-adv-x="963" d="M383 33Q391 33 404 33T431 35T455 41T468 52Q483 160 495 242T517 387T531 493T536 570Q536 581 535 587T527 597T511 600T482 601Q411 601 353 575T251 505T185 402T161 281Q161 219 175 177T211 107T260 64T311 42T355 34T383 33ZM519 0Q502 0 475 0T419 -2Q391 -3 367 -4T328 -5Q267 -5 215 12T125 62T65 145T43 258Q43 334 75 403T164 525T302 609T479 640Q502 640 522 640T559 638Q595 635 615 635H936L929 580Q928 575 928 568T927 553T922 541T913 535Q904 535 902 540T899 552T893 566T876 580Q850 591 807 593T711 596H683Q669 596 661 595T651 583L622 371H710Q725 371 745 372T783 376T814 385T829 404L835 441H866L840 257H809L814 302Q815 310 815 312T815 316Q815 321 812 324T797 330T763 334T704 335H617L589 110Q587 99 586 88T585 68Q585 49 592 44T619 39Q659 39 701 39T781 45T845 62T884 94Q886 99 888 103T899 108Q910 108 910 95Q910 84 904 64T887 0H519Z"  />
<glyph unicode="&#x153;" horiz-adv-x="722" d="M598 310Q604 335 604 362Q604 381 597 396T567 412Q537 412 514 389T475 332T450 262T442 202L598 310ZM213 14Q251 14 276 42T316 109T337 190T343 261Q343 280 341 306T332 355T309 395T267 412Q229 412 204 384T164 317T143 236T137 165Q137 146 139 120T148 71T171 31T213 14ZM689 79Q650 34 596 8T481 -19Q438 -19 405 -1T359 61Q326 25 281 3T182 -19Q107 -19 70 21T32 136Q32 192 51 247T104 346T188 417T298 445Q319 445 339 442T378 429T409 405T430 368Q462 401 509 423T609 445Q642 445 664 434T686 385V367Q699 375 705 380T714 389T718 393T722 394Q727 394 727 388Q727 382 726 377T724 365Q661 311 591 265T446 167Q446 144 449 119T461 74T489 40T536 26Q555 26 574 33T611 51T645 75T675 100L689 79Z"  />
<glyph unicode="&#x160;" horiz-adv-x="519" d="M99 472Q99 518 119 552T172 610T249 645T340 657Q377 657 412 651T478 632V573Q478 562 476 554T463 546Q456 546 454 549T449 559Q444 576 430 587T399 605T363 615T328 618Q305 618 283 612T241 593T211 561T199 516Q199 485 218 461T266 416T328 373T390 325T438 266T457 187Q457 147 441 110T391 43T306 -4T185 -22Q146 -22 107 -17T30 0Q29 13 28 28T25 56T22 80T21 95Q21 109 34 109Q43 109 46 104T52 90Q58 71 74 57T111 34T153 21T193 17Q223 17 251 26T301 52T337 94T351 152Q351 184 333 210T286 259T225 305T164 351T118 405T99 472ZM307 678Q287 711 257 737T190 775Q198 782 205 788T223 794Q235 794 247 790T272 780T296 765T316 749Q326 757 340 765T371 779T404 790T432 794Q445 794 452 785T467 767Q422 757 380 735T307 678Z"  />
<glyph unicode="&#x161;" horiz-adv-x="389" d="M244 83Q244 106 232 125T200 160T158 193T117 227T85 266T72 314Q72 347 89 372T132 413T189 437T249 445Q259 445 277 443T313 436T343 422T356 397Q356 382 344 375T318 367Q296 367 277 379T252 414Q247 415 244 415T238 415Q211 415 188 399T164 353Q164 332 177 315T211 282T254 249T298 214T331 171T345 116Q345 81 328 56T285 14T226 -11T163 -19Q149 -19 127 -16T82 -6T43 15T27 47Q27 64 38 71T63 79Q89 79 108 61T133 18Q141 13 147 12T163 11Q195 11 219 30T244 83ZM218 496Q198 529 168 555T101 593Q109 600 116 606T134 612Q146 612 158 608T183 598T207 583T227 567Q237 575 251 583T282 597T315 608T343 612Q356 612 363 603T378 585Q333 575 291 553T218 496Z"  />
<glyph unicode="&#x178;" horiz-adv-x="574" d="M279 602H234Q226 602 221 601T216 595Q216 592 220 582T231 558T245 531T257 505L330 339Q343 354 360 376T396 424T432 477T464 527T487 568T496 593Q496 600 491 601T479 602H422L427 635H614L609 603H576Q566 603 563 601T554 591Q504 519 448 443T337 290L315 74Q314 68 314 64T314 55Q314 41 321 37T340 33H397L392 0H112L117 33H155Q168 33 176 33T188 34T193 39T195 47L230 301L128 529Q107 575 96 588T77 602H31L36 635H284L279 602ZM395 707Q378 707 368 718T358 746Q358 766 373 780T408 795Q425 795 435 785T446 758Q446 736 432 722T395 707ZM273 707Q256 707 246 718T236 746Q236 766 251 780T286 795Q303 795 313 785T324 758Q324 736 310 722T273 707Z"  />
<glyph unicode="&#x17D;" horiz-adv-x="593" d="M31 0Q23 0 19 -1T12 -4Q9 -6 7 -7T-1 -9Q-11 -9 -11 1Q-11 6 2 24T35 66T79 118T126 171T165 215T189 241Q200 253 219 274T261 320T310 375T361 433T407 491T445 545L443 547Q420 537 401 533T361 529Q347 529 318 532T259 539T205 546T175 549Q101 549 101 484H72Q69 496 69 508Q69 537 80 562T111 605T155 633T210 643Q234 643 265 638T332 626T404 614T478 608Q506 608 515 614T529 629T537 643T560 650H573Q562 621 544 596T506 547L390 407Q356 366 312 317T227 221T155 138T116 86Q132 90 143 92T169 95T207 96T272 96Q332 96 369 96T430 97T468 100T496 107Q506 110 511 116T519 128T525 138T536 143Q549 143 549 129Q549 120 543 101T530 61T515 23T505 0H31ZM319 678Q299 711 269 737T202 775Q210 782 217 788T235 794Q247 794 259 790T284 780T308 765T328 749Q338 757 352 765T383 779T416 790T444 794Q457 794 464 785T479 767Q434 757 392 735T319 678Z"  />
<glyph unicode="&#x17E;" horiz-adv-x="481" d="M18 -11Q30 20 68 57T158 140T265 239T370 355L368 357Q355 348 338 341T302 334Q276 334 256 342T217 361T181 380T145 389Q134 389 124 384T112 365Q143 349 143 313Q143 299 135 287T111 274Q91 274 82 292T73 327Q73 354 85 376T116 413T159 436T208 445Q236 445 262 438T312 423T358 408T401 401Q417 401 423 407T433 421T441 435T457 442H479Q464 409 441 380T394 325Q379 308 359 288T308 238T236 168T135 70L137 68Q144 73 151 75T170 78Q202 78 235 59T303 17T369 -25T430 -44Q441 -44 451 -41T473 -34L484 -56Q470 -65 453 -73T416 -88T379 -99T344 -103Q312 -103 282 -85T221 -44T159 -2T96 17Q82 17 71 10T53 -11H18ZM273 488Q253 521 223 547T156 585Q164 592 171 598T189 604Q201 604 213 600T238 590T262 575T282 559Q292 567 306 575T337 589T370 600T398 604Q411 604 418 595T433 577Q388 567 346 545T273 488Z"  />
<glyph unicode="&#x192;" horiz-adv-x="519" d="M394 426L389 393H312L240 32Q224 -46 192 -100T121 -187T42 -234T-29 -249Q-38 -249 -49 -247T-70 -239T-87 -226T-94 -207Q-94 -190 -82 -182T-54 -173Q-34 -173 -19 -184T6 -213Q30 -207 49 -192T85 -149T115 -76T141 30L211 393H146L151 426H217Q220 440 226 466T243 522T274 584T320 641T385 683T472 699Q476 699 486 698T506 692T525 680T533 660Q533 644 520 637T493 629Q474 629 459 640T436 668Q400 661 380 632T349 565T332 489T318 426H394Z"  />
<glyph unicode="&#x2C6;" horiz-adv-x="278" d="M184 613Q204 580 234 554T301 516Q293 509 286 503T268 497Q245 497 218 511T175 542Q165 534 151 526T120 512T87 501T59 497Q46 497 39 506T24 524Q69 534 111 556T184 613Z"  />
<glyph unicode="&#x2C7;" horiz-adv-x="278" d="M161 488Q141 521 111 547T44 585Q52 592 59 598T77 604Q89 604 101 600T126 590T150 575T170 559Q180 567 194 575T225 589T258 600T286 604Q299 604 306 595T321 577Q276 567 234 545T161 488Z"  />
<glyph unicode="&#x2DA;" horiz-adv-x="278" d="M170 481Q135 481 110 505T85 564Q85 583 92 599T113 628T143 648T178 655Q213 655 238 631T263 571Q263 552 256 536T235 507T205 488T170 481ZM172 518Q193 518 209 533T226 569Q226 590 212 604T177 618Q155 618 139 603T122 566Q122 546 137 532T172 518Z"  />
<glyph unicode="&#x2DC;" horiz-adv-x="278" d="M64 522Q71 548 87 570T133 593Q146 593 160 589T188 579Q203 573 217 569T244 564Q261 564 270 572T286 596L311 590Q303 559 282 537T227 515Q212 515 198 519T169 529Q155 534 144 538T122 543Q108 543 101 535T88 515L64 522Z"  />
<glyph unicode="&#x2013;" horiz-adv-x="500" d="M22 260H522L478 187H-22L22 260Z"  />
<glyph unicode="&#x2014;" horiz-adv-x="1000" d="M22 260H1022L978 187H-22L22 260Z"  />
<glyph unicode="&#x2018;" horiz-adv-x="204" d="M202 631Q188 624 171 613T139 587T114 557T104 523Q104 513 111 503Q118 505 123 507T136 509Q156 509 168 497T181 465Q181 440 163 425T121 409Q86 409 69 434T51 492Q51 520 62 545T91 590T132 627T179 654L202 631Z"  />
<glyph unicode="&#x2019;" horiz-adv-x="204" d="M51 432Q65 439 82 450T114 476T139 506T149 540Q149 546 147 550T142 560Q135 558 130 556T117 554Q97 554 85 566T72 598Q72 623 90 638T132 654Q167 654 184 629T202 571Q202 543 191 518T162 473T121 436T74 409L51 432Z"  />
<glyph unicode="&#x201A;" horiz-adv-x="204" d="M-15 -134Q-1 -127 16 -116T48 -90T73 -60T83 -26Q83 -20 81 -16T76 -6Q69 -8 64 -10T51 -12Q31 -12 19 0T6 32Q6 57 24 72T66 88Q101 88 118 63T136 5Q136 -23 125 -48T96 -93T55 -130T8 -157L-15 -134Z"  />
<glyph unicode="&#x201C;" horiz-adv-x="444" d="M419 631Q405 624 388 613T356 587T331 557T321 523Q321 513 328 503Q335 505 340 507T353 509Q373 509 385 497T398 465Q398 440 380 425T338 409Q303 409 286 434T268 492Q268 520 279 545T308 590T349 627T396 654L419 631ZM226 631Q212 624 195 613T163 587T138 557T128 523Q128 513 135 503Q142 505 147 507T160 509Q180 509 192 497T205 465Q205 440 187 425T145 409Q110 409 93 434T75 492Q75 520 86 545T115 590T156 627T203 654L226 631Z"  />
<glyph unicode="&#x201D;" horiz-adv-x="444" d="M75 432Q89 439 106 450T138 476T163 506T173 540Q173 546 171 550T166 560Q159 558 154 556T141 554Q121 554 109 566T96 598Q96 623 114 638T156 654Q191 654 208 629T226 571Q226 543 215 518T186 473T145 436T98 409L75 432ZM268 432Q282 439 299 450T331 476T356 506T366 540Q366 546 364 550T359 560Q352 558 347 556T334 554Q314 554 302 566T289 598Q289 623 307 638T349 654Q384 654 401 629T419 571Q419 543 408 518T379 473T338 436T291 409L268 432Z"  />
<glyph unicode="&#x201E;" horiz-adv-x="444" d="M7 -134Q21 -127 38 -116T70 -90T95 -60T105 -26Q105 -20 103 -16T98 -6Q91 -8 86 -10T73 -12Q53 -12 41 0T28 32Q28 57 46 72T88 88Q123 88 140 63T158 5Q158 -23 147 -48T118 -93T77 -130T30 -157L7 -134ZM200 -134Q214 -127 231 -116T263 -90T288 -60T298 -26Q298 -20 296 -16T291 -6Q284 -8 279 -10T266 -12Q246 -12 234 0T221 32Q221 57 239 72T281 88Q316 88 333 63T351 5Q351 -23 340 -48T311 -93T270 -130T223 -157L200 -134Z"  />
<glyph unicode="&#x2020;" horiz-adv-x="500" d="M174 -61Q178 -35 184 6T194 93T194 181T175 252Q210 292 225 344T247 448Q207 447 169 436T96 407Q93 422 87 437T68 462Q83 471 94 485T111 517Q143 497 178 488T250 476Q257 521 249 555T230 609Q266 624 290 654Q298 639 310 628T337 609Q314 580 300 546T280 476Q320 477 358 488T431 517Q434 502 440 487T459 462Q444 453 433 439T416 407Q384 427 349 436T277 448Q269 394 269 344T292 252Q270 222 256 185T232 106T216 23T206 -61H174Z"  />
<glyph unicode="&#x2021;" horiz-adv-x="500" d="M183 -61Q187 -48 190 -22T195 34T192 96T176 152Q199 169 213 194T229 249Q192 249 156 241T85 216Q83 229 78 241T62 263Q74 272 83 284T98 310Q130 292 164 284T233 276Q236 295 237 309T236 336T227 360T210 390Q234 407 247 433T263 489Q225 489 189 481T118 456Q116 469 111 481T95 503Q107 512 116 524T131 550Q163 532 197 524T267 516Q272 538 264 566T244 612Q260 620 275 630T301 654Q309 640 320 630T346 612Q328 592 315 568T297 516Q335 517 371 525T442 550Q444 537 449 525T465 503Q453 494 444 482T429 456Q397 474 363 482T293 489Q288 465 290 448T298 418T309 400T318 390Q293 365 280 338T263 276Q301 277 337 285T408 310Q410 297 415 285T431 263Q419 254 410 242T395 216Q363 234 329 242T259 249Q254 226 257 209T265 180T277 161T285 152Q253 106 237 51T218 -61H183Z"  />
<glyph unicode="&#x2022;" horiz-adv-x="500" d="M252 158Q219 158 191 170T141 203T107 254T94 317Q94 350 106 378T140 428T190 462T252 475Q285 475 314 463T364 429T398 379T411 317Q411 284 399 255T365 205T314 171T252 158Z"  />
<glyph unicode="&#x2026;" horiz-adv-x="1000" d="M133 -12Q107 -12 92 3T77 44Q77 70 92 85T133 100Q159 100 174 85T189 44Q189 18 174 3T133 -12ZM466 -12Q440 -12 425 3T410 44Q410 70 425 85T466 100Q492 100 507 85T522 44Q522 18 507 3T466 -12ZM799 -12Q773 -12 758 3T743 44Q743 70 758 85T799 100Q825 100 840 85T855 44Q855 18 840 3T799 -12Z"  />
<glyph unicode="&#x2030;" horiz-adv-x="1000" d="M443 -5Q402 -5 376 27T349 107Q349 150 366 190T412 262T481 312T564 331Q605 331 631 299T658 219Q658 176 641 136T595 64T526 14T443 -5ZM481 30Q495 30 512 39T545 68T571 121T582 198Q582 212 580 229T572 261T555 286T527 296Q513 296 496 287T462 258T436 205T425 128Q425 115 427 98T436 66T453 41T481 30ZM799 -5Q758 -5 732 27T705 107Q705 150 722 190T768 262T837 312T920 331Q961 331 987 299T1014 219Q1014 176 997 136T951 64T882 14T799 -5ZM837 30Q851 30 868 39T901 68T927 121T938 198Q938 212 936 229T928 261T911 286T883 296Q869 296 852 287T818 258T792 205T781 128Q781 115 783 98T792 66T809 41T837 30ZM153 310Q112 310 86 342T59 422Q59 465 76 505T122 577T191 627T274 646Q315 646 341 614T368 534Q368 491 351 451T305 379T236 329T153 310ZM191 345Q205 345 222 354T255 383T281 436T292 513Q292 527 290 544T282 576T265 601T237 611Q223 611 206 602T172 573T146 520T135 443Q135 430 137 413T146 381T163 356T191 345ZM645 688Q506 527 393 348T202 -28L198 -38L140 -52Q163 12 194 72T259 192Q333 324 416 449T599 688H645Z"  />
<glyph unicode="&#x2039;" horiz-adv-x="333" d="M251 401Q244 351 220 306T162 224Q172 206 181 183T197 136T206 88T205 43L177 30Q159 87 132 138T58 224Q111 261 153 309T218 418L251 401Z"  />
<glyph unicode="&#x203A;" horiz-adv-x="333" d="M68 47Q75 97 99 142T157 224Q146 242 137 265T122 312T113 360T114 405L142 418Q160 361 187 310T261 224Q208 187 166 139T101 30L68 47Z"  />
<glyph unicode="&#x20AC;" horiz-adv-x="519" d="M286 -16Q237 -16 199 3T135 56T96 138T82 244V266H8L21 301H85Q90 337 97 369H24L37 404H107Q125 459 154 505T221 584T303 635T396 654Q424 654 456 646T511 625L508 570Q507 553 505 543T491 532Q479 532 474 543Q472 548 472 554T469 567Q466 578 455 585T429 597T399 604T373 606Q332 606 302 592T250 551T215 487T194 404H430L417 369H190Q188 352 187 334T186 301H396L383 266H185Q185 203 198 150T244 67Q260 52 278 44T321 35Q336 35 354 38T392 48T431 67T469 96L487 71Q448 29 395 7T286 -16Z"  />
<glyph unicode="&#x2122;" horiz-adv-x="1000" d="M268 365Q268 336 268 321T271 298T278 289T289 287H336V262H124V287H173Q183 287 183 296V606Q170 606 151 606T114 602T80 593T58 575Q52 564 46 564Q38 564 38 571Q39 581 58 635H393Q412 581 413 571Q413 564 405 564Q398 564 393 575Q387 587 372 593T337 602T300 605T268 606V365ZM578 635L700 383L818 635H947V610H918Q908 610 908 600V365Q908 336 908 321T911 298T918 289T929 287H962V262H784V287H813Q821 287 822 290T823 306V576H821L683 280Q681 275 679 271T673 266Q671 266 669 270T664 279L523 565H522V405Q522 363 522 340T525 304T533 290T547 287H578V262H452V287H480Q485 287 488 288T491 294V536Q491 567 486 588T451 610H433V635H578Z"  />

</font>
</defs>
</svg>
